<?xml version="1.0" encoding="utf-8" standalone="no"?>
<!DOCTYPE svg PUBLIC "-//W3C//DTD SVG 1.1//EN"
  "http://www.w3.org/Graphics/SVG/1.1/DTD/svg11.dtd">
<svg xmlns:xlink="http://www.w3.org/1999/xlink" width="432pt" height="360pt" viewBox="0 0 432 360" xmlns="http://www.w3.org/2000/svg" version="1.1">
 <metadata>
  <rdf:RDF xmlns:dc="http://purl.org/dc/elements/1.1/" xmlns:cc="http://creativecommons.org/ns#" xmlns:rdf="http://www.w3.org/1999/02/22-rdf-syntax-ns#">
   <cc:Work>
    <dc:type rdf:resource="http://purl.org/dc/dcmitype/StillImage"/>
    <dc:date>2026-08-03T20:08:47.997227</dc:date>
    <dc:format>image/svg+xml</dc:format>
    <dc:creator>
     <cc:Agent>
      <dc:title>Matplotlib v3.11.0, https://matplotlib.org/</dc:title>
     </cc:Agent>
    </dc:creator>
   </cc:Work>
  </rdf:RDF>
 </metadata>
 <defs>
  <style type="text/css">*{stroke-linejoin: round; stroke-linecap: butt}</style>
 </defs>
 <g id="figure_1">
  <g id="patch_1">
   <path d="M 0 360 
L 432 360 
L 432 0 
L 0 0 
z
" style="fill: #ffffff"/>
  </g>
  <g id="axes_1">
   <g id="patch_2">
    <path d="M 47.962344 317.877656 
L 413.28 317.877656 
L 413.28 26.16 
L 47.962344 26.16 
z
" style="fill: #ffffff"/>
   </g>
   <g id="matplotlib.axis_1">
    <g id="xtick_1">
     <g id="line2d_1">
      <path d="M 47.962344 317.877656 
L 47.962344 26.16 
" clip-path="url(#p401d1552cf)" style="fill: none; stroke: #b0b0b0; stroke-opacity: 0.3; stroke-width: 0.8; stroke-linecap: square"/>
     </g>
     <g id="line2d_2">
      <defs>
       <path id="ma28d47a741" d="M 0 0 
L 0 3.5 
" style="stroke: #000000; stroke-width: 0.8"/>
      </defs>
      <g>
       <use xlink:href="#ma28d47a741" x="47.962344" y="317.877656" style="stroke: #000000; stroke-width: 0.8"/>
      </g>
     </g>
     <g id="text_1">
      <!-- 0.0 -->
      <g transform="translate(40.010781 332.475312) scale(0.1 -0.1)">
       <defs>
        <path id="DejaVuSans-13" d="M 2034 4250 
Q 1547 4250 1301 3770 
Q 1056 3291 1056 2328 
Q 1056 1369 1301 889 
Q 1547 409 2034 409 
Q 2525 409 2770 889 
Q 3016 1369 3016 2328 
Q 3016 3291 2770 3770 
Q 2525 4250 2034 4250 
z
M 2034 4750 
Q 2819 4750 3233 4129 
Q 3647 3509 3647 2328 
Q 3647 1150 3233 529 
Q 2819 -91 2034 -91 
Q 1250 -91 836 529 
Q 422 1150 422 2328 
Q 422 3509 836 4129 
Q 1250 4750 2034 4750 
z
" transform="scale(0.015625)"/>
        <path id="DejaVuSans-11" d="M 684 794 
L 1344 794 
L 1344 0 
L 684 0 
L 684 794 
z
" transform="scale(0.015625)"/>
       </defs>
       <use xlink:href="#DejaVuSans-13"/>
       <use xlink:href="#DejaVuSans-11" transform="translate(63.625 0)"/>
       <use xlink:href="#DejaVuSans-13" transform="translate(95.40625 0)"/>
      </g>
     </g>
    </g>
    <g id="xtick_2">
     <g id="line2d_3">
      <path d="M 121.025875 317.877656 
L 121.025875 26.16 
" clip-path="url(#p401d1552cf)" style="fill: none; stroke: #b0b0b0; stroke-opacity: 0.3; stroke-width: 0.8; stroke-linecap: square"/>
     </g>
     <g id="line2d_4">
      <g>
       <use xlink:href="#ma28d47a741" x="121.025875" y="317.877656" style="stroke: #000000; stroke-width: 0.8"/>
      </g>
     </g>
     <g id="text_2">
      <!-- 0.2 -->
      <g transform="translate(113.074313 332.475312) scale(0.1 -0.1)">
       <defs>
        <path id="DejaVuSans-15" d="M 1228 531 
L 3431 531 
L 3431 0 
L 469 0 
L 469 531 
Q 828 903 1448 1529 
Q 2069 2156 2228 2338 
Q 2531 2678 2651 2914 
Q 2772 3150 2772 3378 
Q 2772 3750 2511 3984 
Q 2250 4219 1831 4219 
Q 1534 4219 1204 4116 
Q 875 4013 500 3803 
L 500 4441 
Q 881 4594 1212 4672 
Q 1544 4750 1819 4750 
Q 2544 4750 2975 4387 
Q 3406 4025 3406 3419 
Q 3406 3131 3298 2873 
Q 3191 2616 2906 2266 
Q 2828 2175 2409 1742 
Q 1991 1309 1228 531 
z
" transform="scale(0.015625)"/>
       </defs>
       <use xlink:href="#DejaVuSans-13"/>
       <use xlink:href="#DejaVuSans-11" transform="translate(63.625 0)"/>
       <use xlink:href="#DejaVuSans-15" transform="translate(95.40625 0)"/>
      </g>
     </g>
    </g>
    <g id="xtick_3">
     <g id="line2d_5">
      <path d="M 194.089406 317.877656 
L 194.089406 26.16 
" clip-path="url(#p401d1552cf)" style="fill: none; stroke: #b0b0b0; stroke-opacity: 0.3; stroke-width: 0.8; stroke-linecap: square"/>
     </g>
     <g id="line2d_6">
      <g>
       <use xlink:href="#ma28d47a741" x="194.089406" y="317.877656" style="stroke: #000000; stroke-width: 0.8"/>
      </g>
     </g>
     <g id="text_3">
      <!-- 0.4 -->
      <g transform="translate(186.137844 332.475312) scale(0.1 -0.1)">
       <defs>
        <path id="DejaVuSans-17" d="M 2419 4116 
L 825 1625 
L 2419 1625 
L 2419 4116 
z
M 2253 4666 
L 3047 4666 
L 3047 1625 
L 3713 1625 
L 3713 1100 
L 3047 1100 
L 3047 0 
L 2419 0 
L 2419 1100 
L 313 1100 
L 313 1709 
L 2253 4666 
z
" transform="scale(0.015625)"/>
       </defs>
       <use xlink:href="#DejaVuSans-13"/>
       <use xlink:href="#DejaVuSans-11" transform="translate(63.625 0)"/>
       <use xlink:href="#DejaVuSans-17" transform="translate(95.40625 0)"/>
      </g>
     </g>
    </g>
    <g id="xtick_4">
     <g id="line2d_7">
      <path d="M 267.152938 317.877656 
L 267.152938 26.16 
" clip-path="url(#p401d1552cf)" style="fill: none; stroke: #b0b0b0; stroke-opacity: 0.3; stroke-width: 0.8; stroke-linecap: square"/>
     </g>
     <g id="line2d_8">
      <g>
       <use xlink:href="#ma28d47a741" x="267.152938" y="317.877656" style="stroke: #000000; stroke-width: 0.8"/>
      </g>
     </g>
     <g id="text_4">
      <!-- 0.6 -->
      <g transform="translate(259.201375 332.475312) scale(0.1 -0.1)">
       <defs>
        <path id="DejaVuSans-19" d="M 2113 2584 
Q 1688 2584 1439 2293 
Q 1191 2003 1191 1497 
Q 1191 994 1439 701 
Q 1688 409 2113 409 
Q 2538 409 2786 701 
Q 3034 994 3034 1497 
Q 3034 2003 2786 2293 
Q 2538 2584 2113 2584 
z
M 3366 4563 
L 3366 3988 
Q 3128 4100 2886 4159 
Q 2644 4219 2406 4219 
Q 1781 4219 1451 3797 
Q 1122 3375 1075 2522 
Q 1259 2794 1537 2939 
Q 1816 3084 2150 3084 
Q 2853 3084 3261 2657 
Q 3669 2231 3669 1497 
Q 3669 778 3244 343 
Q 2819 -91 2113 -91 
Q 1303 -91 875 529 
Q 447 1150 447 2328 
Q 447 3434 972 4092 
Q 1497 4750 2381 4750 
Q 2619 4750 2861 4703 
Q 3103 4656 3366 4563 
z
" transform="scale(0.015625)"/>
       </defs>
       <use xlink:href="#DejaVuSans-13"/>
       <use xlink:href="#DejaVuSans-11" transform="translate(63.625 0)"/>
       <use xlink:href="#DejaVuSans-19" transform="translate(95.40625 0)"/>
      </g>
     </g>
    </g>
    <g id="xtick_5">
     <g id="line2d_9">
      <path d="M 340.216469 317.877656 
L 340.216469 26.16 
" clip-path="url(#p401d1552cf)" style="fill: none; stroke: #b0b0b0; stroke-opacity: 0.3; stroke-width: 0.8; stroke-linecap: square"/>
     </g>
     <g id="line2d_10">
      <g>
       <use xlink:href="#ma28d47a741" x="340.216469" y="317.877656" style="stroke: #000000; stroke-width: 0.8"/>
      </g>
     </g>
     <g id="text_5">
      <!-- 0.8 -->
      <g transform="translate(332.264906 332.475312) scale(0.1 -0.1)">
       <defs>
        <path id="DejaVuSans-1b" d="M 2034 2216 
Q 1584 2216 1326 1975 
Q 1069 1734 1069 1313 
Q 1069 891 1326 650 
Q 1584 409 2034 409 
Q 2484 409 2743 651 
Q 3003 894 3003 1313 
Q 3003 1734 2745 1975 
Q 2488 2216 2034 2216 
z
M 1403 2484 
Q 997 2584 770 2862 
Q 544 3141 544 3541 
Q 544 4100 942 4425 
Q 1341 4750 2034 4750 
Q 2731 4750 3128 4425 
Q 3525 4100 3525 3541 
Q 3525 3141 3298 2862 
Q 3072 2584 2669 2484 
Q 3125 2378 3379 2068 
Q 3634 1759 3634 1313 
Q 3634 634 3220 271 
Q 2806 -91 2034 -91 
Q 1263 -91 848 271 
Q 434 634 434 1313 
Q 434 1759 690 2068 
Q 947 2378 1403 2484 
z
M 1172 3481 
Q 1172 3119 1398 2916 
Q 1625 2713 2034 2713 
Q 2441 2713 2670 2916 
Q 2900 3119 2900 3481 
Q 2900 3844 2670 4047 
Q 2441 4250 2034 4250 
Q 1625 4250 1398 4047 
Q 1172 3844 1172 3481 
z
" transform="scale(0.015625)"/>
       </defs>
       <use xlink:href="#DejaVuSans-13"/>
       <use xlink:href="#DejaVuSans-11" transform="translate(63.625 0)"/>
       <use xlink:href="#DejaVuSans-1b" transform="translate(95.40625 0)"/>
      </g>
     </g>
    </g>
    <g id="xtick_6">
     <g id="line2d_11">
      <path d="M 413.28 317.877656 
L 413.28 26.16 
" clip-path="url(#p401d1552cf)" style="fill: none; stroke: #b0b0b0; stroke-opacity: 0.3; stroke-width: 0.8; stroke-linecap: square"/>
     </g>
     <g id="line2d_12">
      <g>
       <use xlink:href="#ma28d47a741" x="413.28" y="317.877656" style="stroke: #000000; stroke-width: 0.8"/>
      </g>
     </g>
     <g id="text_6">
      <!-- 1.0 -->
      <g transform="translate(405.328437 332.475312) scale(0.1 -0.1)">
       <defs>
        <path id="DejaVuSans-14" d="M 794 531 
L 1825 531 
L 1825 4091 
L 703 3866 
L 703 4441 
L 1819 4666 
L 2450 4666 
L 2450 531 
L 3481 531 
L 3481 0 
L 794 0 
L 794 531 
z
" transform="scale(0.015625)"/>
       </defs>
       <use xlink:href="#DejaVuSans-14"/>
       <use xlink:href="#DejaVuSans-11" transform="translate(63.625 0)"/>
       <use xlink:href="#DejaVuSans-13" transform="translate(95.40625 0)"/>
      </g>
     </g>
    </g>
    <g id="text_7">
     <!-- Recall -->
     <g transform="translate(215.703203 346.476094) scale(0.1 -0.1)">
      <defs>
       <path id="DejaVuSans-35" d="M 2841 2188 
Q 3044 2119 3236 1894 
Q 3428 1669 3622 1275 
L 4263 0 
L 3584 0 
L 2988 1197 
Q 2756 1666 2539 1819 
Q 2322 1972 1947 1972 
L 1259 1972 
L 1259 0 
L 628 0 
L 628 4666 
L 2053 4666 
Q 2853 4666 3247 4331 
Q 3641 3997 3641 3322 
Q 3641 2881 3436 2590 
Q 3231 2300 2841 2188 
z
M 1259 4147 
L 1259 2491 
L 2053 2491 
Q 2509 2491 2742 2702 
Q 2975 2913 2975 3322 
Q 2975 3731 2742 3939 
Q 2509 4147 2053 4147 
L 1259 4147 
z
" transform="scale(0.015625)"/>
       <path id="DejaVuSans-48" d="M 3597 1894 
L 3597 1613 
L 953 1613 
Q 991 1019 1311 708 
Q 1631 397 2203 397 
Q 2534 397 2845 478 
Q 3156 559 3463 722 
L 3463 178 
Q 3153 47 2828 -22 
Q 2503 -91 2169 -91 
Q 1331 -91 842 396 
Q 353 884 353 1716 
Q 353 2575 817 3079 
Q 1281 3584 2069 3584 
Q 2775 3584 3186 3129 
Q 3597 2675 3597 1894 
z
M 3022 2063 
Q 3016 2534 2758 2815 
Q 2500 3097 2075 3097 
Q 1594 3097 1305 2825 
Q 1016 2553 972 2059 
L 3022 2063 
z
" transform="scale(0.015625)"/>
       <path id="DejaVuSans-46" d="M 3122 3366 
L 3122 2828 
Q 2878 2963 2633 3030 
Q 2388 3097 2138 3097 
Q 1578 3097 1268 2742 
Q 959 2388 959 1747 
Q 959 1106 1268 751 
Q 1578 397 2138 397 
Q 2388 397 2633 464 
Q 2878 531 3122 666 
L 3122 134 
Q 2881 22 2623 -34 
Q 2366 -91 2075 -91 
Q 1284 -91 818 406 
Q 353 903 353 1747 
Q 353 2603 823 3093 
Q 1294 3584 2113 3584 
Q 2378 3584 2631 3529 
Q 2884 3475 3122 3366 
z
" transform="scale(0.015625)"/>
       <path id="DejaVuSans-44" d="M 2194 1759 
Q 1497 1759 1228 1600 
Q 959 1441 959 1056 
Q 959 750 1161 570 
Q 1363 391 1709 391 
Q 2188 391 2477 730 
Q 2766 1069 2766 1631 
L 2766 1759 
L 2194 1759 
z
M 3341 1997 
L 3341 0 
L 2766 0 
L 2766 531 
Q 2569 213 2275 61 
Q 1981 -91 1556 -91 
Q 1019 -91 701 211 
Q 384 513 384 1019 
Q 384 1609 779 1909 
Q 1175 2209 1959 2209 
L 2766 2209 
L 2766 2266 
Q 2766 2663 2505 2880 
Q 2244 3097 1772 3097 
Q 1472 3097 1187 3025 
Q 903 2953 641 2809 
L 641 3341 
Q 956 3463 1253 3523 
Q 1550 3584 1831 3584 
Q 2591 3584 2966 3190 
Q 3341 2797 3341 1997 
z
" transform="scale(0.015625)"/>
       <path id="DejaVuSans-4f" d="M 603 4863 
L 1178 4863 
L 1178 0 
L 603 0 
L 603 4863 
z
" transform="scale(0.015625)"/>
      </defs>
      <use xlink:href="#DejaVuSans-35"/>
      <use xlink:href="#DejaVuSans-48" transform="translate(65 0)"/>
      <use xlink:href="#DejaVuSans-46" transform="translate(126.53125 0)"/>
      <use xlink:href="#DejaVuSans-44" transform="translate(181.515625 0)"/>
      <use xlink:href="#DejaVuSans-4f" transform="translate(242.796875 0)"/>
      <use xlink:href="#DejaVuSans-4f" transform="translate(270.578125 0)"/>
     </g>
    </g>
   </g>
   <g id="matplotlib.axis_2">
    <g id="ytick_1">
     <g id="line2d_13">
      <path d="M 47.962344 317.877656 
L 413.28 317.877656 
" clip-path="url(#p401d1552cf)" style="fill: none; stroke: #b0b0b0; stroke-opacity: 0.3; stroke-width: 0.8; stroke-linecap: square"/>
     </g>
     <g id="line2d_14">
      <defs>
       <path id="m7b003506cf" d="M 0 0 
L -3.5 0 
" style="stroke: #000000; stroke-width: 0.8"/>
      </defs>
      <g>
       <use xlink:href="#m7b003506cf" x="47.962344" y="317.877656" style="stroke: #000000; stroke-width: 0.8"/>
      </g>
     </g>
     <g id="text_8">
      <!-- 0.0 -->
      <g transform="translate(25.059219 321.676484) scale(0.1 -0.1)">
       <use xlink:href="#DejaVuSans-13"/>
       <use xlink:href="#DejaVuSans-11" transform="translate(63.625 0)"/>
       <use xlink:href="#DejaVuSans-13" transform="translate(95.40625 0)"/>
      </g>
     </g>
    </g>
    <g id="ytick_2">
     <g id="line2d_15">
      <path d="M 47.962344 260.678116 
L 413.28 260.678116 
" clip-path="url(#p401d1552cf)" style="fill: none; stroke: #b0b0b0; stroke-opacity: 0.3; stroke-width: 0.8; stroke-linecap: square"/>
     </g>
     <g id="line2d_16">
      <g>
       <use xlink:href="#m7b003506cf" x="47.962344" y="260.678116" style="stroke: #000000; stroke-width: 0.8"/>
      </g>
     </g>
     <g id="text_9">
      <!-- 0.2 -->
      <g transform="translate(25.059219 264.476944) scale(0.1 -0.1)">
       <use xlink:href="#DejaVuSans-13"/>
       <use xlink:href="#DejaVuSans-11" transform="translate(63.625 0)"/>
       <use xlink:href="#DejaVuSans-15" transform="translate(95.40625 0)"/>
      </g>
     </g>
    </g>
    <g id="ytick_3">
     <g id="line2d_17">
      <path d="M 47.962344 203.478575 
L 413.28 203.478575 
" clip-path="url(#p401d1552cf)" style="fill: none; stroke: #b0b0b0; stroke-opacity: 0.3; stroke-width: 0.8; stroke-linecap: square"/>
     </g>
     <g id="line2d_18">
      <g>
       <use xlink:href="#m7b003506cf" x="47.962344" y="203.478575" style="stroke: #000000; stroke-width: 0.8"/>
      </g>
     </g>
     <g id="text_10">
      <!-- 0.4 -->
      <g transform="translate(25.059219 207.277403) scale(0.1 -0.1)">
       <use xlink:href="#DejaVuSans-13"/>
       <use xlink:href="#DejaVuSans-11" transform="translate(63.625 0)"/>
       <use xlink:href="#DejaVuSans-17" transform="translate(95.40625 0)"/>
      </g>
     </g>
    </g>
    <g id="ytick_4">
     <g id="line2d_19">
      <path d="M 47.962344 146.279035 
L 413.28 146.279035 
" clip-path="url(#p401d1552cf)" style="fill: none; stroke: #b0b0b0; stroke-opacity: 0.3; stroke-width: 0.8; stroke-linecap: square"/>
     </g>
     <g id="line2d_20">
      <g>
       <use xlink:href="#m7b003506cf" x="47.962344" y="146.279035" style="stroke: #000000; stroke-width: 0.8"/>
      </g>
     </g>
     <g id="text_11">
      <!-- 0.6 -->
      <g transform="translate(25.059219 150.077863) scale(0.1 -0.1)">
       <use xlink:href="#DejaVuSans-13"/>
       <use xlink:href="#DejaVuSans-11" transform="translate(63.625 0)"/>
       <use xlink:href="#DejaVuSans-19" transform="translate(95.40625 0)"/>
      </g>
     </g>
    </g>
    <g id="ytick_5">
     <g id="line2d_21">
      <path d="M 47.962344 89.079494 
L 413.28 89.079494 
" clip-path="url(#p401d1552cf)" style="fill: none; stroke: #b0b0b0; stroke-opacity: 0.3; stroke-width: 0.8; stroke-linecap: square"/>
     </g>
     <g id="line2d_22">
      <g>
       <use xlink:href="#m7b003506cf" x="47.962344" y="89.079494" style="stroke: #000000; stroke-width: 0.8"/>
      </g>
     </g>
     <g id="text_12">
      <!-- 0.8 -->
      <g transform="translate(25.059219 92.878323) scale(0.1 -0.1)">
       <use xlink:href="#DejaVuSans-13"/>
       <use xlink:href="#DejaVuSans-11" transform="translate(63.625 0)"/>
       <use xlink:href="#DejaVuSans-1b" transform="translate(95.40625 0)"/>
      </g>
     </g>
    </g>
    <g id="ytick_6">
     <g id="line2d_23">
      <path d="M 47.962344 31.879954 
L 413.28 31.879954 
" clip-path="url(#p401d1552cf)" style="fill: none; stroke: #b0b0b0; stroke-opacity: 0.3; stroke-width: 0.8; stroke-linecap: square"/>
     </g>
     <g id="line2d_24">
      <g>
       <use xlink:href="#m7b003506cf" x="47.962344" y="31.879954" style="stroke: #000000; stroke-width: 0.8"/>
      </g>
     </g>
     <g id="text_13">
      <!-- 1.0 -->
      <g transform="translate(25.059219 35.678782) scale(0.1 -0.1)">
       <use xlink:href="#DejaVuSans-14"/>
       <use xlink:href="#DejaVuSans-11" transform="translate(63.625 0)"/>
       <use xlink:href="#DejaVuSans-13" transform="translate(95.40625 0)"/>
      </g>
     </g>
    </g>
    <g id="text_14">
     <!-- Precision -->
     <g transform="translate(18.656875 194.328203) rotate(-90) scale(0.1 -0.1)">
      <defs>
       <path id="DejaVuSans-33" d="M 1259 4147 
L 1259 2394 
L 2053 2394 
Q 2494 2394 2734 2622 
Q 2975 2850 2975 3272 
Q 2975 3691 2734 3919 
Q 2494 4147 2053 4147 
L 1259 4147 
z
M 628 4666 
L 2053 4666 
Q 2838 4666 3239 4311 
Q 3641 3956 3641 3272 
Q 3641 2581 3239 2228 
Q 2838 1875 2053 1875 
L 1259 1875 
L 1259 0 
L 628 0 
L 628 4666 
z
" transform="scale(0.015625)"/>
       <path id="DejaVuSans-55" d="M 2631 2963 
Q 2534 3019 2420 3045 
Q 2306 3072 2169 3072 
Q 1681 3072 1420 2755 
Q 1159 2438 1159 1844 
L 1159 0 
L 581 0 
L 581 3500 
L 1159 3500 
L 1159 2956 
Q 1341 3275 1631 3429 
Q 1922 3584 2338 3584 
Q 2397 3584 2469 3576 
Q 2541 3569 2628 3553 
L 2631 2963 
z
" transform="scale(0.015625)"/>
       <path id="DejaVuSans-4c" d="M 603 3500 
L 1178 3500 
L 1178 0 
L 603 0 
L 603 3500 
z
M 603 4863 
L 1178 4863 
L 1178 4134 
L 603 4134 
L 603 4863 
z
" transform="scale(0.015625)"/>
       <path id="DejaVuSans-56" d="M 2834 3397 
L 2834 2853 
Q 2591 2978 2328 3040 
Q 2066 3103 1784 3103 
Q 1356 3103 1142 2972 
Q 928 2841 928 2578 
Q 928 2378 1081 2264 
Q 1234 2150 1697 2047 
L 1894 2003 
Q 2506 1872 2764 1633 
Q 3022 1394 3022 966 
Q 3022 478 2636 193 
Q 2250 -91 1575 -91 
Q 1294 -91 989 -36 
Q 684 19 347 128 
L 347 722 
Q 666 556 975 473 
Q 1284 391 1588 391 
Q 1994 391 2212 530 
Q 2431 669 2431 922 
Q 2431 1156 2273 1281 
Q 2116 1406 1581 1522 
L 1381 1569 
Q 847 1681 609 1914 
Q 372 2147 372 2553 
Q 372 3047 722 3315 
Q 1072 3584 1716 3584 
Q 2034 3584 2315 3537 
Q 2597 3491 2834 3397 
z
" transform="scale(0.015625)"/>
       <path id="DejaVuSans-52" d="M 1959 3097 
Q 1497 3097 1228 2736 
Q 959 2375 959 1747 
Q 959 1119 1226 758 
Q 1494 397 1959 397 
Q 2419 397 2687 759 
Q 2956 1122 2956 1747 
Q 2956 2369 2687 2733 
Q 2419 3097 1959 3097 
z
M 1959 3584 
Q 2709 3584 3137 3096 
Q 3566 2609 3566 1747 
Q 3566 888 3137 398 
Q 2709 -91 1959 -91 
Q 1206 -91 779 398 
Q 353 888 353 1747 
Q 353 2609 779 3096 
Q 1206 3584 1959 3584 
z
" transform="scale(0.015625)"/>
       <path id="DejaVuSans-51" d="M 3513 2113 
L 3513 0 
L 2938 0 
L 2938 2094 
Q 2938 2591 2744 2837 
Q 2550 3084 2163 3084 
Q 1697 3084 1428 2787 
Q 1159 2491 1159 1978 
L 1159 0 
L 581 0 
L 581 3500 
L 1159 3500 
L 1159 2956 
Q 1366 3272 1645 3428 
Q 1925 3584 2291 3584 
Q 2894 3584 3203 3211 
Q 3513 2838 3513 2113 
z
" transform="scale(0.015625)"/>
      </defs>
      <use xlink:href="#DejaVuSans-33"/>
      <use xlink:href="#DejaVuSans-55" transform="translate(58.546875 0)"/>
      <use xlink:href="#DejaVuSans-48" transform="translate(97.453125 0)"/>
      <use xlink:href="#DejaVuSans-46" transform="translate(158.984375 0)"/>
      <use xlink:href="#DejaVuSans-4c" transform="translate(213.96875 0)"/>
      <use xlink:href="#DejaVuSans-56" transform="translate(241.75 0)"/>
      <use xlink:href="#DejaVuSans-4c" transform="translate(293.84375 0)"/>
      <use xlink:href="#DejaVuSans-52" transform="translate(321.625 0)"/>
      <use xlink:href="#DejaVuSans-51" transform="translate(382.8125 0)"/>
     </g>
    </g>
   </g>
   <g id="line2d_25">
    <path d="M 47.962344 31.879954 
L 48.328027 31.879954 
L 48.69371 33.982878 
L 50.522127 33.982878 
L 50.88781 34.142083 
L 57.470111 34.246016 
L 58.201477 34.324379 
L 60.029894 34.349322 
L 60.395577 34.349322 
L 61.126944 34.711614 
L 61.858311 34.711614 
L 62.223994 34.962564 
L 64.783777 35.05029 
L 66.612194 35.266212 
L 69.171977 35.335317 
L 70.269027 35.548213 
L 70.634711 35.876428 
L 71.731761 35.932553 
L 73.560178 36.04231 
L 73.925861 36.218062 
L 74.657228 36.218062 
L 75.388594 36.374204 
L 77.217011 36.620782 
L 77.582694 36.798833 
L 81.239528 36.892986 
L 81.970894 36.945535 
L 82.702261 37.225021 
L 86.724778 37.239242 
L 88.187511 37.668252 
L 91.112978 37.909831 
L 91.478661 37.954013 
L 92.210028 38.234047 
L 92.941395 38.294395 
L 93.672761 38.332416 
L 94.769811 38.631101 
L 97.329595 39.090934 
L 98.060961 39.290376 
L 98.792328 39.324939 
L 99.158011 39.483387 
L 99.523695 39.483387 
L 99.889378 39.679402 
L 101.717795 40.097382 
L 103.180528 40.460895 
L 103.911895 40.691243 
L 105.374628 40.718735 
L 106.105995 40.94864 
L 107.568728 41.284404 
L 108.665778 41.710411 
L 109.762828 41.761988 
L 110.859878 41.916506 
L 112.688295 42.481962 
L 113.053978 42.704904 
L 113.785345 42.727853 
L 114.516712 42.972066 
L 116.345128 43.055206 
L 118.539228 43.613592 
L 119.270595 43.64654 
L 120.367645 43.807569 
L 120.733328 43.807569 
L 122.561745 44.412396 
L 122.927428 44.423069 
L 123.293112 44.652596 
L 124.755845 45.035848 
L 125.487212 45.354064 
L 128.778362 46.255947 
L 129.875412 46.43124 
L 131.703829 46.733593 
L 132.800879 47.243069 
L 135.360662 47.756656 
L 136.457712 47.826641 
L 138.286129 48.215816 
L 139.383179 48.427727 
L 140.480229 48.818648 
L 143.405695 49.809517 
L 145.234112 50.021393 
L 145.965479 50.467611 
L 147.428212 51.018451 
L 148.159579 51.112543 
L 148.525262 51.364047 
L 149.622312 51.591212 
L 149.987995 51.869887 
L 150.353679 51.905022 
L 150.719362 52.096495 
L 151.085046 52.125056 
L 151.450729 52.370957 
L 152.182096 52.480398 
L 152.913462 52.827051 
L 153.279146 52.988103 
L 154.741879 53.245019 
L 156.204612 53.76841 
L 156.935979 53.917281 
L 157.667346 54.181196 
L 158.764396 54.819029 
L 160.592812 55.418088 
L 160.958496 55.672236 
L 161.689862 55.805832 
L 162.421229 56.111977 
L 162.786912 56.14309 
L 163.883962 56.661585 
L 164.615329 56.790449 
L 165.346696 57.017694 
L 168.637846 58.33236 
L 169.003529 58.593196 
L 169.369212 58.692239 
L 169.734896 58.944769 
L 170.466263 59.164377 
L 171.197629 59.691143 
L 172.294679 60.185612 
L 173.757413 61.089366 
L 174.123096 61.12437 
L 174.488779 61.277392 
L 174.854463 61.552063 
L 175.951513 61.912933 
L 176.682879 62.341366 
L 177.414246 62.65437 
L 177.779929 62.937455 
L 178.145613 63.060007 
L 179.242663 63.953554 
L 180.705396 64.564308 
L 182.899496 65.927747 
L 183.996546 66.411032 
L 184.727913 67.004422 
L 185.459279 67.2352 
L 186.556329 67.822541 
L 187.287696 68.202275 
L 191.675896 70.159833 
L 192.407263 70.531087 
L 193.13863 70.749603 
L 194.601363 71.397914 
L 196.795463 72.772288 
L 200.086613 74.278622 
L 200.452296 74.344039 
L 201.183663 74.793978 
L 202.280713 75.227321 
L 203.377763 75.784348 
L 203.743446 76.087407 
L 204.840496 76.493056 
L 205.937546 77.337456 
L 207.034596 77.68457 
L 208.131646 78.299847 
L 208.863013 78.90597 
L 212.519847 80.944565 
L 213.251213 81.241573 
L 216.542363 83.55651 
L 218.005097 84.335673 
L 218.37078 84.759379 
L 219.46783 85.212668 
L 220.56488 85.558689 
L 223.124663 86.938193 
L 223.85603 87.656751 
L 224.587397 88.071169 
L 224.95308 88.497795 
L 230.804014 91.851629 
L 234.82653 94.878482 
L 237.02063 96.20731 
L 238.483364 96.925057 
L 239.21473 97.455647 
L 241.774514 99.217617 
L 242.50588 99.702686 
L 244.334297 101.042652 
L 245.065664 101.325323 
L 245.79703 101.976246 
L 249.088181 104.588159 
L 249.453864 104.710146 
L 250.916597 105.899426 
L 253.842064 108.234832 
L 254.573431 108.918874 
L 255.304797 109.430421 
L 256.767531 110.88975 
L 257.498897 111.381622 
L 258.230264 111.943144 
L 259.327314 112.837621 
L 259.692997 113.410294 
L 260.424364 113.974391 
L 261.155731 114.497459 
L 262.252781 115.392234 
L 262.618464 115.62037 
L 263.349831 116.364722 
L 264.446881 117.159506 
L 267.738031 119.66628 
L 268.103714 120.049012 
L 268.469398 120.211663 
L 269.932131 121.440728 
L 270.297814 121.651751 
L 270.663498 122.078617 
L 271.029181 122.297198 
L 271.760548 122.874439 
L 273.588964 124.629209 
L 274.686014 125.622413 
L 275.783064 126.227529 
L 276.880114 126.943884 
L 277.611481 127.682058 
L 278.708531 128.563839 
L 281.633998 131.622154 
L 282.365364 132.076482 
L 283.096731 132.692559 
L 283.828098 133.481295 
L 284.193781 133.863509 
L 285.290831 135.503655 
L 286.022198 136.180118 
L 286.387881 136.718248 
L 289.313348 139.408183 
L 290.044715 140.350642 
L 290.410398 140.53346 
L 291.507448 141.681343 
L 291.873131 141.890242 
L 292.238815 142.369698 
L 293.335865 143.311722 
L 294.067231 144.196365 
L 296.261331 145.931923 
L 296.992698 146.629256 
L 297.724065 147.226676 
L 298.089748 147.74411 
L 298.821115 148.440843 
L 299.186798 148.877475 
L 299.918165 149.315762 
L 300.649531 150.290813 
L 301.015215 150.499765 
L 302.477948 151.873116 
L 302.843631 152.092608 
L 303.940681 153.497491 
L 305.769098 155.628594 
L 306.500465 156.346808 
L 306.866148 157.021144 
L 307.231832 157.404213 
L 307.597515 157.978293 
L 307.963198 158.280917 
L 310.522982 161.384273 
L 312.717082 163.824382 
L 314.545498 166.06049 
L 315.276865 166.948474 
L 315.642548 167.285495 
L 318.202332 170.571941 
L 321.493482 174.678571 
L 322.590532 176.30568 
L 323.687582 177.695748 
L 325.515998 179.967421 
L 325.881682 180.316583 
L 326.978732 181.902931 
L 327.710099 182.768363 
L 328.075782 183.460958 
L 328.441465 183.853206 
L 329.172832 185.047507 
L 329.538515 185.490679 
L 329.904199 186.252459 
L 330.635565 186.839506 
L 332.098299 188.629971 
L 332.829665 189.620067 
L 333.195349 189.965167 
L 333.926715 191.136329 
L 334.658082 192.113726 
L 336.852182 195.388907 
L 339.046282 198.581321 
L 340.509015 200.642275 
L 340.874699 201.122776 
L 344.165849 206.992507 
L 344.531532 207.453327 
L 345.628582 209.386282 
L 346.359949 210.470017 
L 347.091316 211.816443 
L 348.188366 213.59659 
L 349.285416 215.923652 
L 350.748149 218.119191 
L 351.113832 218.895262 
L 351.479516 219.342939 
L 353.307932 222.812484 
L 355.502032 225.997076 
L 356.964766 228.811624 
L 357.696132 230.167552 
L 358.061816 230.925436 
L 358.427499 231.380694 
L 359.158866 232.794117 
L 360.987282 236.57891 
L 362.450016 239.292487 
L 363.181382 240.644565 
L 363.912749 242.26342 
L 364.644116 243.540652 
L 365.009799 244.330587 
L 365.375483 244.841592 
L 367.203899 248.43302 
L 368.300949 250.235152 
L 370.129366 253.497047 
L 372.323466 258.214652 
L 373.786199 260.884806 
L 376.345983 265.623856 
L 377.077349 266.785321 
L 377.443033 267.483722 
L 377.808716 268.471324 
L 378.540083 269.626672 
L 379.271449 271.498242 
L 380.002816 272.996518 
L 380.734183 274.637568 
L 381.099866 275.157025 
L 381.465549 276.045857 
L 381.831233 276.458247 
L 382.562599 277.955808 
L 383.659649 280.123831 
L 385.122383 283.251425 
L 385.85375 284.635627 
L 386.219433 285.120326 
L 388.779216 289.757395 
L 389.876266 291.363577 
L 390.607633 292.623801 
L 392.801733 296.093962 
L 394.264466 298.792838 
L 394.995833 299.985448 
L 395.361516 317.877656 
L 413.28 317.877656 
L 413.28 317.877656 
" clip-path="url(#p401d1552cf)" style="fill: none; stroke: #b22222; stroke-width: 1.8; stroke-linecap: square"/>
   </g>
   <g id="line2d_26">
    <path d="M 47.962344 31.879954 
L 48.69371 31.879954 
L 49.059394 34.603742 
L 49.79076 41.466469 
L 50.156444 42.139961 
L 50.522127 42.139961 
L 51.253494 45.945415 
L 51.619177 46.09102 
L 51.98486 48.703348 
L 52.350544 50.331419 
L 53.813277 54.374155 
L 54.178961 56.0914 
L 54.544644 56.543106 
L 54.910327 58.245367 
L 55.276011 59.258232 
L 55.641694 61.754366 
L 56.007377 63.296368 
L 56.738744 63.388175 
L 57.104427 63.551903 
L 57.470111 63.551903 
L 57.835794 64.333594 
L 58.201477 64.333594 
L 58.567161 64.759769 
L 58.932844 65.494328 
L 59.298527 65.684104 
L 60.029894 65.684104 
L 60.395577 65.811885 
L 60.761261 66.658207 
L 63.321044 66.658207 
L 64.052411 67.220631 
L 66.612194 67.289193 
L 67.709244 67.913545 
L 68.074927 68.390299 
L 68.440611 68.557522 
L 68.806294 68.943211 
L 69.171977 69.069369 
L 69.903344 69.607311 
L 70.269027 70.170339 
L 70.634711 70.274166 
L 71.000394 70.521421 
L 71.366077 70.552202 
L 71.731761 70.890935 
L 72.097444 72.134161 
L 72.463128 72.48013 
L 73.560178 72.834825 
L 73.925861 73.909085 
L 74.291544 73.909085 
L 74.657228 74.118623 
L 75.388594 74.163418 
L 75.754278 74.544328 
L 76.851328 76.157006 
L 77.948378 76.804585 
L 78.314061 77.302003 
L 79.411111 78.020312 
L 79.776794 78.118034 
L 80.873844 78.85038 
L 81.239528 79.360544 
L 81.605211 79.574031 
L 81.970894 79.574031 
L 82.702261 80.241797 
L 84.530678 83.292711 
L 84.896361 83.292711 
L 85.627728 83.95361 
L 85.993411 84.033342 
L 86.359094 84.257017 
L 87.090461 86.462339 
L 87.456144 86.462339 
L 87.821828 86.641075 
L 88.187511 86.683558 
L 88.553194 87.161964 
L 88.918878 87.421341 
L 89.650244 88.208837 
L 90.381611 89.066586 
L 90.747294 89.461674 
L 91.112978 89.61123 
L 92.210028 91.187104 
L 92.575711 91.365561 
L 93.307078 91.447857 
L 94.038445 92.11778 
L 94.769811 92.707397 
L 95.135495 92.715931 
L 95.501178 92.919148 
L 95.866861 93.27742 
L 96.963911 94.641318 
L 97.329595 94.908267 
L 97.695278 95.000017 
L 98.060961 95.470386 
L 98.426645 95.751193 
L 98.792328 95.830401 
L 99.158011 96.155512 
L 99.523695 96.324359 
L 100.255061 97.017143 
L 100.620745 97.153306 
L 102.814845 99.221189 
L 103.180528 99.279479 
L 103.911895 99.985752 
L 105.008945 100.19427 
L 105.374628 100.468863 
L 105.740311 100.586081 
L 106.471678 101.105154 
L 107.203045 101.542697 
L 107.568728 101.914894 
L 107.934411 101.928106 
L 109.397145 102.614624 
L 110.494195 103.358899 
L 111.225561 103.551863 
L 111.591245 103.903037 
L 113.419662 104.73468 
L 114.151028 105.098439 
L 114.516712 105.281316 
L 114.882395 105.321526 
L 115.248078 105.524835 
L 115.613762 105.919207 
L 116.345128 106.035734 
L 116.710812 106.279871 
L 117.076495 106.330266 
L 118.173545 107.284245 
L 119.636278 108.155355 
L 120.001962 108.556714 
L 120.367645 108.724969 
L 121.464695 108.838716 
L 122.196062 110.092665 
L 123.658795 110.865116 
L 124.024478 111.38699 
L 125.121528 111.853149 
L 125.487212 112.23638 
L 125.852895 112.279264 
L 126.218578 112.633724 
L 126.584262 112.832691 
L 127.681312 112.867455 
L 128.412678 113.171212 
L 128.778362 113.662562 
L 129.144045 113.701056 
L 129.875412 114.061491 
L 130.606778 114.863133 
L 130.972462 115.648512 
L 131.338145 116.114536 
L 131.703829 116.315724 
L 132.069512 116.857547 
L 132.435195 117.155543 
L 133.166562 118.206708 
L 133.532245 118.572136 
L 133.897929 119.391875 
L 134.263612 119.635816 
L 135.726345 121.227397 
L 136.457712 122.024775 
L 137.189079 122.396509 
L 137.554762 123.009482 
L 137.920445 123.009846 
L 139.748862 124.693827 
L 140.114545 124.760802 
L 140.480229 124.998968 
L 140.845912 125.736096 
L 141.211595 125.855913 
L 141.577279 126.55151 
L 143.040012 127.595961 
L 143.405695 127.7531 
L 144.868429 129.117773 
L 145.234112 129.790746 
L 145.599795 130.228355 
L 146.331162 131.376177 
L 149.256629 133.534599 
L 149.987995 134.430989 
L 150.353679 134.589744 
L 150.719362 134.98752 
L 151.085046 135.746398 
L 151.450729 136.192668 
L 151.816412 136.421375 
L 155.107562 139.552726 
L 155.473246 139.687488 
L 155.838929 140.225861 
L 156.204612 140.37335 
L 156.570296 140.697448 
L 157.301662 141.813815 
L 157.667346 142.094639 
L 158.033029 142.901364 
L 158.764396 143.390398 
L 159.130079 144.061621 
L 159.495762 144.288124 
L 160.227129 145.232814 
L 160.958496 145.713606 
L 163.152596 148.146501 
L 163.518279 148.72358 
L 163.883962 149.644736 
L 164.249646 149.950019 
L 164.981012 151.004378 
L 165.346696 151.323254 
L 165.712379 152.081642 
L 166.443746 152.923864 
L 168.637846 154.755679 
L 169.003529 155.353374 
L 169.369212 155.555502 
L 170.466263 157.290543 
L 170.831946 157.473105 
L 172.660363 159.982775 
L 174.123096 161.630753 
L 174.854463 162.33144 
L 176.317196 164.426301 
L 179.974029 168.799072 
L 180.339713 169.31266 
L 180.705396 169.565201 
L 181.071079 170.179749 
L 181.436763 170.370995 
L 182.899496 172.464723 
L 183.630863 173.566305 
L 183.996546 173.928099 
L 186.922013 178.148899 
L 187.287696 178.480595 
L 187.653379 178.993409 
L 188.384746 180.402668 
L 189.84748 182.688492 
L 190.94453 183.976794 
L 191.675896 185.115141 
L 192.04158 185.546091 
L 192.772946 186.602159 
L 193.13863 186.95652 
L 193.504313 187.5227 
L 193.869996 188.391721 
L 194.967046 189.840162 
L 195.698413 191.055518 
L 196.064096 191.51371 
L 196.42978 192.311017 
L 201.549346 198.710398 
L 201.91503 198.999483 
L 202.280713 199.759532 
L 203.377763 201.183182 
L 204.840496 203.384155 
L 205.571863 204.394582 
L 205.937546 204.892285 
L 206.30323 205.702568 
L 207.034596 206.408226 
L 209.228697 209.154594 
L 209.59438 209.411571 
L 210.325747 210.766822 
L 210.69143 211.120689 
L 211.057113 211.811767 
L 211.78848 212.589911 
L 215.445313 218.06403 
L 216.17668 218.871672 
L 216.908047 219.867169 
L 218.005097 221.329881 
L 218.736463 222.153372 
L 219.102147 222.826751 
L 219.46783 223.085798 
L 220.199197 224.043837 
L 222.393297 226.178785 
L 222.75898 226.622819 
L 223.124663 227.343604 
L 224.587397 228.908773 
L 224.95308 229.627483 
L 225.684447 230.356236 
L 226.05013 230.647888 
L 227.14718 232.220354 
L 228.24423 233.632918 
L 229.34128 235.318864 
L 230.43833 236.397866 
L 232.63243 239.825351 
L 233.363797 240.671048 
L 234.095164 241.798654 
L 234.82653 242.622467 
L 235.92358 243.967555 
L 238.11768 246.589316 
L 238.849047 247.462041 
L 239.946097 248.657703 
L 240.677464 249.425943 
L 241.40883 250.429781 
L 242.140197 251.342029 
L 242.871564 252.333411 
L 244.334297 254.084785 
L 246.528397 256.43834 
L 247.259764 257.352815 
L 247.625447 257.627088 
L 248.356814 258.435303 
L 250.185231 260.005495 
L 252.379331 262.414429 
L 253.110697 263.345343 
L 253.476381 263.562914 
L 253.842064 263.973939 
L 255.304797 265.029226 
L 257.498897 267.054864 
L 258.961631 268.694619 
L 259.327314 268.962432 
L 260.058681 269.75614 
L 260.424364 269.99267 
L 261.521414 271.387384 
L 261.887097 271.676634 
L 262.984147 272.889113 
L 263.715514 273.512676 
L 264.812564 274.679826 
L 267.372348 277.385322 
L 267.738031 277.633797 
L 268.835081 278.879508 
L 269.200764 279.074518 
L 269.932131 279.867303 
L 270.663498 280.526085 
L 271.760548 281.521505 
L 272.126231 282.088495 
L 272.491914 282.329458 
L 273.223281 283.210598 
L 273.588964 283.437616 
L 274.320331 284.285145 
L 276.514431 286.258687 
L 280.902631 290.188516 
L 281.633998 290.602492 
L 285.656514 293.858082 
L 290.044715 296.797652 
L 292.970181 298.829646 
L 294.432915 299.841505 
L 295.164281 300.247632 
L 295.895648 300.790893 
L 296.992698 301.388802 
L 297.724065 301.908898 
L 298.455431 302.380061 
L 299.918165 303.157413 
L 300.283848 317.877656 
L 413.28 317.877656 
L 413.28 317.877656 
" clip-path="url(#p401d1552cf)" style="fill: none; stroke-dasharray: 6.66,2.88; stroke-dashoffset: 0; stroke: #b22222; stroke-width: 1.8"/>
   </g>
   <g id="line2d_27">
    <path d="M 47.962344 31.879954 
L 50.156444 31.879954 
L 50.522127 44.87985 
L 52.716227 44.87985 
L 53.081911 49.213148 
L 54.910327 49.213148 
L 55.641694 61.984975 
L 56.007377 66.900081 
L 57.835794 66.900081 
L 58.201477 71.134541 
L 58.567161 71.327913 
L 72.828811 71.408092 
L 73.194494 74.332738 
L 73.560178 74.332738 
L 73.925861 78.709987 
L 81.605211 78.709987 
L 81.970894 80.908132 
L 83.067944 83.17302 
L 83.433628 83.17302 
L 83.799311 84.563741 
L 84.164994 84.563741 
L 84.896361 86.425908 
L 85.262044 88.292345 
L 90.747294 88.326869 
L 91.112978 88.596798 
L 92.575711 88.596798 
L 92.941395 88.842152 
L 93.307078 88.842152 
L 93.672761 90.009568 
L 94.038445 90.009568 
L 94.769811 90.860025 
L 95.866861 90.860025 
L 96.232545 91.014817 
L 97.329595 91.014817 
L 97.695278 91.418509 
L 98.060961 91.418509 
L 98.426645 91.929294 
L 99.889378 91.929294 
L 100.620745 93.093497 
L 100.986428 94.564382 
L 101.352111 94.564382 
L 102.083478 97.141175 
L 102.449161 98.022745 
L 103.180528 98.022745 
L 103.546211 98.494326 
L 106.471678 98.554265 
L 106.837361 102.951239 
L 107.203045 103.930789 
L 116.345128 103.930789 
L 116.710812 104.108966 
L 117.076495 105.157972 
L 118.173545 105.157972 
L 118.904912 106.700869 
L 119.270595 107.686574 
L 119.636278 107.686574 
L 120.001962 107.879343 
L 121.830378 107.879343 
L 122.927428 108.879335 
L 123.658795 108.879335 
L 124.024478 110.112509 
L 124.755845 110.589406 
L 129.144045 110.589406 
L 129.509728 111.125151 
L 130.972462 111.258908 
L 131.338145 111.517526 
L 131.703829 113.018135 
L 132.069512 113.349419 
L 132.435195 113.349419 
L 132.800879 114.639132 
L 133.166562 115.342319 
L 133.532245 115.342319 
L 133.897929 116.965643 
L 134.629295 118.382095 
L 134.994979 120.453869 
L 135.360662 120.857017 
L 135.726345 122.689443 
L 136.092029 122.879223 
L 136.457712 122.902731 
L 136.823395 124.318497 
L 137.189079 124.498427 
L 137.554762 125.019029 
L 137.920445 125.216028 
L 138.651812 125.216028 
L 139.383179 128.180365 
L 140.114545 128.180365 
L 140.480229 128.487874 
L 140.845912 128.487874 
L 141.211595 128.788266 
L 141.942962 128.788266 
L 142.308645 129.090996 
L 142.674329 129.856328 
L 143.040012 130.002743 
L 143.405695 130.879159 
L 144.868429 130.983588 
L 145.234112 131.416162 
L 145.599795 131.552623 
L 145.965479 131.822989 
L 146.696845 131.934878 
L 147.062529 134.579129 
L 147.428212 134.579129 
L 147.793895 134.787673 
L 148.159579 134.787673 
L 148.525262 134.907527 
L 149.622312 136.145588 
L 149.987995 136.145588 
L 150.353679 136.881968 
L 152.913462 136.948613 
L 153.279146 137.627004 
L 154.376196 137.687171 
L 154.741879 138.489827 
L 155.107562 138.489827 
L 155.473246 138.835259 
L 155.838929 140.81313 
L 156.204612 140.81313 
L 156.570296 142.637685 
L 156.935979 142.954359 
L 157.301662 144.035916 
L 157.667346 144.275938 
L 158.033029 144.275938 
L 158.398712 144.657398 
L 158.764396 144.735088 
L 159.130079 145.330573 
L 160.227129 145.702717 
L 160.592812 146.064268 
L 160.958496 146.989588 
L 161.324179 147.058706 
L 161.689862 147.540789 
L 162.055546 147.540789 
L 162.421229 147.796996 
L 163.883962 147.796996 
L 164.981012 149.584197 
L 166.443746 149.682975 
L 169.003529 149.931457 
L 169.369212 150.559273 
L 169.734896 150.669067 
L 170.100579 151.473164 
L 170.466263 151.998989 
L 170.831946 151.998989 
L 171.197629 152.150511 
L 171.563313 152.927227 
L 171.928996 153.33531 
L 172.294679 154.406418 
L 172.660363 154.406418 
L 173.026046 154.669117 
L 173.391729 154.669117 
L 173.757413 155.620211 
L 174.123096 155.832447 
L 174.488779 156.252904 
L 174.854463 157.003949 
L 175.220146 157.208127 
L 175.585829 158.435405 
L 175.951513 158.79509 
L 176.317196 159.407746 
L 176.682879 159.407746 
L 177.048563 159.593214 
L 178.145613 159.593214 
L 178.511296 159.781317 
L 178.876979 160.958563 
L 179.242663 160.958563 
L 179.608346 161.128916 
L 181.802446 161.128916 
L 182.168129 161.285758 
L 183.265179 161.285758 
L 183.630863 161.459956 
L 183.996546 162.660124 
L 184.362229 162.705844 
L 184.727913 163.470734 
L 185.093596 163.634677 
L 185.824963 165.933274 
L 186.190646 166.512536 
L 186.556329 166.663431 
L 186.922013 167.766962 
L 187.287696 168.045232 
L 187.653379 169.904932 
L 188.019063 171.067142 
L 188.384746 171.067142 
L 188.750429 173.917468 
L 189.116113 173.919081 
L 189.481796 174.878805 
L 190.213163 175.114777 
L 190.94453 176.045191 
L 191.310213 177.188964 
L 191.675896 177.853181 
L 192.407263 178.172663 
L 192.772946 178.49331 
L 193.13863 178.49331 
L 193.504313 179.462818 
L 193.869996 179.67144 
L 194.23568 180.084805 
L 194.601363 181.448431 
L 195.698413 183.441611 
L 196.064096 185.19831 
L 196.42978 185.280632 
L 196.795463 186.293808 
L 197.161146 186.293808 
L 197.52683 187.112352 
L 197.892513 187.375839 
L 198.258196 191.294994 
L 198.989563 191.598066 
L 199.72093 193.580868 
L 200.452296 193.580868 
L 200.81798 195.495493 
L 201.183663 196.235776 
L 201.91503 196.235776 
L 202.280713 196.388639 
L 202.646396 196.388639 
L 203.01208 196.815612 
L 204.474813 196.815612 
L 204.840496 197.722647 
L 205.571863 197.815964 
L 206.30323 198.69719 
L 206.668913 199.877382 
L 207.034596 200.134388 
L 207.40028 200.571884 
L 207.765963 200.61169 
L 208.49733 202.838533 
L 208.863013 203.344619 
L 209.228697 203.478575 
L 209.59438 203.975963 
L 209.960063 204.888885 
L 210.325747 205.048374 
L 211.422797 207.695615 
L 211.78848 207.963575 
L 212.154163 208.97073 
L 212.519847 209.507716 
L 212.88553 209.507716 
L 213.251213 210.227694 
L 213.616897 210.227694 
L 213.98258 211.044652 
L 214.348263 211.175611 
L 214.713947 211.825161 
L 215.07963 212.805229 
L 215.810997 212.889297 
L 216.17668 213.333506 
L 216.542363 214.062515 
L 216.908047 214.062515 
L 217.27373 214.747313 
L 218.37078 214.810291 
L 219.46783 216.103073 
L 220.199197 216.103073 
L 221.296247 218.217937 
L 222.027613 218.289171 
L 222.75898 218.400195 
L 223.85603 218.515705 
L 224.221713 218.842853 
L 224.587397 219.757842 
L 224.95308 219.761656 
L 225.684447 220.702707 
L 226.05013 221.355026 
L 226.415813 222.41932 
L 227.14718 222.628422 
L 227.878547 223.244249 
L 228.24423 223.244249 
L 228.609914 223.770443 
L 229.34128 224.324738 
L 229.706964 225.608782 
L 230.072647 225.835153 
L 230.43833 226.311314 
L 230.804014 226.311314 
L 231.169697 226.830574 
L 231.53538 226.857198 
L 232.266747 227.104977 
L 232.63243 227.240516 
L 232.998114 228.025284 
L 233.363797 228.23319 
L 233.72948 228.679794 
L 234.095164 228.848069 
L 234.460847 229.835662 
L 234.82653 230.149652 
L 235.557897 230.208361 
L 236.289264 230.331795 
L 236.654947 230.331795 
L 237.386314 230.999109 
L 237.751997 232.237528 
L 238.11768 232.448398 
L 238.483364 234.397246 
L 238.849047 234.862575 
L 239.21473 235.072766 
L 239.580414 235.07548 
L 239.946097 235.296579 
L 240.31178 235.848862 
L 240.677464 236.035546 
L 241.043147 236.433288 
L 241.40883 236.50344 
L 242.50588 237.221629 
L 243.237247 238.033024 
L 243.60293 238.850726 
L 244.69998 239.176511 
L 245.065664 239.427223 
L 245.431347 240.43147 
L 246.162714 240.454386 
L 246.89408 241.671654 
L 247.625447 242.258831 
L 247.991131 242.847395 
L 248.356814 243.971062 
L 248.722497 244.357501 
L 249.088181 244.357501 
L 249.453864 244.494413 
L 249.819547 244.496667 
L 250.185231 245.195025 
L 250.550914 245.217868 
L 251.282281 245.836253 
L 251.647964 246.295572 
L 252.745014 246.664392 
L 253.110697 247.567536 
L 253.842064 248.209508 
L 254.573431 248.549665 
L 255.304797 249.650205 
L 256.036164 251.450444 
L 256.767531 251.946722 
L 257.498897 252.387049 
L 257.864581 252.448072 
L 258.230264 253.14805 
L 258.595947 253.450789 
L 259.327314 253.606901 
L 260.058681 254.447627 
L 260.424364 254.579635 
L 260.790047 255.024834 
L 261.155731 255.15159 
L 262.618464 255.193228 
L 263.349831 256.309173 
L 263.715514 256.328749 
L 264.081197 257.036941 
L 264.446881 257.181489 
L 265.543931 258.092826 
L 265.909614 258.095744 
L 266.275297 258.83502 
L 267.372348 259.02546 
L 268.103714 259.159988 
L 268.835081 259.280265 
L 269.200764 260.013291 
L 270.297814 260.79879 
L 270.663498 261.133507 
L 271.394864 262.440436 
L 271.760548 262.449938 
L 272.491914 263.505036 
L 273.223281 263.601547 
L 273.588964 264.008609 
L 275.051698 264.068379 
L 275.783064 264.29806 
L 276.148748 264.945435 
L 276.514431 265.282245 
L 276.880114 265.451928 
L 277.245798 265.482361 
L 277.977164 267.307099 
L 278.708531 267.334737 
L 279.074214 267.510055 
L 279.439898 268.050861 
L 279.805581 268.377088 
L 280.171264 269.006511 
L 280.536948 269.286052 
L 280.902631 269.295342 
L 281.268314 269.661066 
L 281.633998 269.661066 
L 281.999681 270.099442 
L 283.096731 270.115849 
L 283.462414 270.416423 
L 284.193781 270.502356 
L 285.290831 271.735718 
L 285.656514 271.888534 
L 286.387881 272.382105 
L 286.753565 272.555616 
L 287.119248 272.991906 
L 287.484931 273.230262 
L 288.216298 273.419122 
L 288.947665 274.27759 
L 289.313348 275.096837 
L 289.679031 275.154799 
L 290.776081 275.899328 
L 291.141765 276.209117 
L 291.507448 276.245842 
L 291.873131 276.455922 
L 292.238815 276.537699 
L 292.604498 276.947753 
L 292.970181 276.959074 
L 293.335865 277.370045 
L 293.701548 277.370045 
L 294.798598 277.785235 
L 295.164281 278.007171 
L 295.529965 278.02738 
L 295.895648 278.308008 
L 296.992698 278.478494 
L 297.358381 278.841143 
L 297.724065 278.892987 
L 298.455431 279.190046 
L 298.821115 279.200907 
L 299.552481 279.718452 
L 299.918165 280.146252 
L 300.649531 280.249146 
L 301.380898 280.437578 
L 301.746581 280.697955 
L 302.112265 280.717223 
L 302.843631 281.463888 
L 303.209315 281.49502 
L 303.940681 281.987749 
L 304.672048 282.033574 
L 305.037731 282.335247 
L 305.403415 282.343132 
L 305.769098 282.760753 
L 306.134782 282.779829 
L 306.500465 283.911183 
L 306.866148 283.911183 
L 307.231832 284.565166 
L 307.963198 284.668894 
L 309.060248 284.919034 
L 311.620032 285.782009 
L 311.985715 286.353005 
L 312.351398 286.361831 
L 313.082765 286.590157 
L 313.448448 286.590157 
L 314.179815 287.422083 
L 315.276865 287.525135 
L 315.642548 287.604623 
L 316.373915 288.111773 
L 316.739598 288.156173 
L 317.105282 288.854205 
L 317.470965 288.954554 
L 317.836648 289.443976 
L 318.202332 289.49281 
L 318.568015 289.686909 
L 318.933698 289.696204 
L 319.299382 289.962461 
L 319.665065 290.388395 
L 320.030748 290.388395 
L 321.493482 291.244993 
L 322.224848 291.605434 
L 322.590532 291.626333 
L 323.687582 292.109525 
L 324.053265 292.109525 
L 324.418948 292.654561 
L 324.784632 292.844616 
L 325.150315 292.862413 
L 325.515998 293.29452 
L 325.881682 293.442781 
L 326.247365 293.822535 
L 326.613049 293.897678 
L 326.978732 294.55739 
L 327.710099 294.799864 
L 328.075782 294.980936 
L 328.441465 294.980936 
L 328.807149 295.7165 
L 330.635565 296.206789 
L 331.001249 296.262073 
L 331.366932 296.461597 
L 333.195349 296.745594 
L 333.561032 296.929549 
L 333.926715 296.929549 
L 334.292399 297.443252 
L 334.658082 297.602631 
L 335.389449 298.265927 
L 335.755132 298.265927 
L 336.120815 298.387207 
L 336.486499 298.387207 
L 339.046282 299.370252 
L 339.411965 299.558675 
L 340.509015 299.574863 
L 340.874699 299.816018 
L 341.240382 299.921739 
L 341.606065 300.161613 
L 341.971749 300.631425 
L 342.337432 300.791547 
L 343.068799 300.830355 
L 343.434482 301.18327 
L 345.994266 301.954684 
L 347.456999 302.881566 
L 348.188366 303.194584 
L 350.016782 303.646489 
L 351.113832 303.781336 
L 352.210882 304.112719 
L 352.942249 304.249705 
L 354.404982 304.370365 
L 354.770666 304.779598 
L 355.502032 304.833758 
L 355.867716 305.099617 
L 356.964766 305.337919 
L 357.330449 305.581904 
L 357.696132 305.581904 
L 359.158866 306.31443 
L 360.255916 306.411827 
L 361.352966 306.569647 
L 362.084332 306.595279 
L 362.450016 306.806403 
L 363.181382 306.974136 
L 364.278432 307.291271 
L 365.009799 307.349414 
L 365.375483 307.596768 
L 365.741166 308.167836 
L 367.935266 309.042546 
L 368.300949 309.138873 
L 368.666633 309.421435 
L 370.129366 309.631256 
L 371.592099 310.16527 
L 372.323466 310.253778 
L 373.054833 310.705137 
L 375.248933 310.910776 
L 375.614616 311.017851 
L 376.345983 311.388574 
L 377.443033 311.48338 
L 378.174399 311.710768 
L 378.540083 311.840924 
L 378.905766 311.840924 
L 379.271449 317.877656 
L 413.28 317.877656 
L 413.28 317.877656 
" clip-path="url(#p401d1552cf)" style="fill: none; stroke-dasharray: 11.52,2.88,1.8,2.88; stroke-dashoffset: 0; stroke: #b22222; stroke-width: 1.8"/>
   </g>
   <g id="line2d_28">
    <path d="M 47.962344 31.879954 
L 49.059394 31.879954 
L 49.425077 33.268292 
L 49.79076 33.268292 
L 50.156444 33.656337 
L 50.88781 33.656337 
L 51.619177 34.955198 
L 51.98486 35.093411 
L 60.761261 35.132392 
L 61.492627 35.418499 
L 61.858311 35.929479 
L 64.783777 36.020048 
L 67.343561 36.230832 
L 67.709244 36.587148 
L 69.171977 36.66208 
L 69.537661 37.1906 
L 71.731761 37.320771 
L 72.463128 37.434408 
L 74.657228 37.543275 
L 76.851328 37.828082 
L 77.217011 38.036649 
L 77.582694 38.101394 
L 77.948378 38.307915 
L 78.314061 38.331723 
L 78.679744 38.879584 
L 79.776794 38.928573 
L 81.605211 39.678399 
L 81.970894 39.678399 
L 82.336578 39.930501 
L 83.067944 39.971983 
L 83.799311 40.412568 
L 84.164994 40.649643 
L 85.627728 40.69118 
L 85.993411 40.817382 
L 86.359094 41.093985 
L 87.090461 41.217243 
L 88.918878 41.309195 
L 89.650244 41.406595 
L 90.747294 41.497691 
L 91.844345 41.630595 
L 92.210028 42.098636 
L 92.575711 42.223897 
L 94.404128 42.3113 
L 94.769811 42.461514 
L 95.135495 42.481139 
L 95.501178 42.739156 
L 98.060961 43.557826 
L 98.426645 43.951286 
L 98.792328 44.100692 
L 99.523695 44.212504 
L 100.255061 44.436967 
L 100.986428 44.524172 
L 102.814845 44.759122 
L 103.180528 44.995013 
L 105.374628 45.428469 
L 106.471678 45.718553 
L 108.300095 45.935009 
L 110.494195 46.473896 
L 111.225561 46.599475 
L 112.322612 46.894938 
L 113.053978 46.969865 
L 114.516712 47.22379 
L 115.979445 47.291808 
L 118.173545 47.717086 
L 119.270595 48.235721 
L 120.367645 48.606498 
L 120.733328 48.764334 
L 121.464695 48.867732 
L 123.293112 49.009934 
L 125.852895 49.032178 
L 126.584262 49.148519 
L 128.046995 49.385887 
L 128.412678 49.56881 
L 129.875412 49.763044 
L 130.606778 50.068547 
L 133.897929 50.657423 
L 134.629295 50.847292 
L 135.360662 50.950562 
L 135.726345 51.222647 
L 136.092029 51.236615 
L 136.457712 51.435352 
L 136.823395 51.435352 
L 137.189079 51.669169 
L 138.651812 51.825734 
L 139.748862 51.941783 
L 140.480229 52.122724 
L 142.308645 52.451471 
L 143.405695 52.631988 
L 143.771379 52.931251 
L 144.868429 53.105702 
L 145.599795 53.246659 
L 146.696845 53.753532 
L 147.428212 53.853078 
L 148.159579 54.179247 
L 148.890945 54.251867 
L 151.816412 54.799542 
L 153.644829 55.469454 
L 154.376196 55.49194 
L 154.741879 55.686425 
L 155.473246 55.75399 
L 156.935979 56.415432 
L 160.227129 57.351734 
L 163.152596 57.745438 
L 164.249646 58.382018 
L 164.981012 58.736814 
L 169.003529 60.012282 
L 169.734896 60.403152 
L 170.466263 60.68244 
L 171.928996 61.08211 
L 172.660363 61.463785 
L 174.123096 61.983901 
L 174.854463 62.25175 
L 175.220146 62.290194 
L 175.585829 62.531185 
L 177.779929 62.915093 
L 180.339713 63.993735 
L 181.802446 64.381859 
L 182.533813 64.74716 
L 183.265179 64.988943 
L 183.630863 65.2754 
L 184.727913 65.688286 
L 186.190646 66.401021 
L 186.556329 66.477186 
L 187.287696 66.897861 
L 189.481796 68.248373 
L 190.94453 68.614248 
L 192.772946 69.843031 
L 193.13863 69.905254 
L 196.064096 71.318096 
L 196.42978 71.424656 
L 197.161146 71.843322 
L 198.258196 72.104296 
L 200.086613 73.04224 
L 201.183663 73.450134 
L 201.91503 73.921552 
L 204.474813 74.693607 
L 204.840496 75.017967 
L 205.20618 75.162566 
L 205.937546 75.671954 
L 206.668913 75.958673 
L 209.228697 76.944892 
L 210.325747 77.66758 
L 211.78848 78.388789 
L 212.154163 78.632117 
L 212.519847 78.702716 
L 213.251213 79.141609 
L 215.07963 80.009388 
L 216.908047 80.959739 
L 219.102147 82.010699 
L 219.833513 82.645028 
L 220.930563 83.333609 
L 221.296247 83.78817 
L 222.027613 84.055302 
L 222.393297 84.343621 
L 222.75898 84.414808 
L 223.490347 84.89045 
L 223.85603 85.018178 
L 224.587397 85.496247 
L 225.318763 85.734184 
L 225.684447 86.039423 
L 226.05013 86.151155 
L 226.415813 86.453291 
L 226.781497 86.516922 
L 227.14718 86.801166 
L 228.24423 87.336893 
L 230.43833 88.32487 
L 231.169697 88.691684 
L 231.901064 89.112034 
L 236.289264 91.281154 
L 237.02063 91.554602 
L 237.386314 91.580546 
L 240.31178 93.496438 
L 241.043147 93.917336 
L 242.871564 95.230601 
L 243.237247 95.299879 
L 244.334297 95.830811 
L 245.431347 96.442973 
L 245.79703 96.660482 
L 246.162714 97.037457 
L 247.991131 98.002818 
L 249.453864 99.162607 
L 250.550914 99.784769 
L 252.013647 100.861097 
L 253.110697 101.411944 
L 253.476381 101.610693 
L 254.573431 102.634922 
L 255.304797 103.07699 
L 261.521414 107.593681 
L 262.252781 107.961317 
L 262.618464 108.129617 
L 263.349831 108.846652 
L 266.640981 111.007984 
L 268.103714 112.292428 
L 273.588964 116.552158 
L 274.686014 117.399006 
L 277.245798 119.05213 
L 277.977164 119.693797 
L 278.708531 120.130624 
L 279.074214 120.323982 
L 280.171264 121.3245 
L 280.902631 121.89338 
L 283.828098 124.662038 
L 284.925148 125.345393 
L 285.656514 126.113603 
L 286.387881 126.795764 
L 286.753565 127.279468 
L 287.484931 127.861929 
L 288.581981 129.099748 
L 290.044715 130.474596 
L 291.141765 131.433235 
L 293.701548 133.566348 
L 295.529965 134.925705 
L 298.089748 137.236434 
L 298.821115 137.931509 
L 299.918165 138.781209 
L 301.380898 140.100835 
L 302.477948 141.173855 
L 304.672048 142.956877 
L 307.963198 145.755332 
L 308.694565 146.695344 
L 310.157298 148.239083 
L 310.522982 148.535545 
L 311.254348 149.312803 
L 312.351398 150.350503 
L 313.448448 151.275152 
L 317.836648 155.41036 
L 325.515998 164.410995 
L 325.881682 164.930481 
L 326.978732 166.003354 
L 327.710099 166.758473 
L 329.172832 168.74037 
L 331.001249 170.69443 
L 331.366932 171.337207 
L 332.098299 172.055865 
L 332.829665 173.065001 
L 333.561032 173.886727 
L 334.292399 175.169759 
L 335.755132 177.0775 
L 337.949232 180.091632 
L 338.314915 180.491319 
L 338.680599 181.19819 
L 339.777649 182.370868 
L 340.143332 182.969835 
L 340.874699 184.411145 
L 341.240382 184.778989 
L 341.971749 186.040153 
L 342.703115 187.307575 
L 343.800165 189.127442 
L 344.531532 190.399821 
L 345.628582 192.048708 
L 346.725632 194.061832 
L 347.456999 195.369557 
L 351.479516 202.839219 
L 352.210882 204.172938 
L 353.307932 206.270053 
L 353.673616 206.791448 
L 354.404982 208.404611 
L 358.061816 214.581057 
L 358.793182 216.302292 
L 360.621599 220.245508 
L 363.181382 227.309934 
L 364.278432 229.649669 
L 364.644116 230.96399 
L 366.838216 236.315186 
L 368.300949 240.069638 
L 372.689149 251.484818 
L 373.786199 254.667573 
L 374.517566 256.5299 
L 375.248933 258.179829 
L 376.345983 260.461658 
L 377.077349 262.264252 
L 377.808716 263.940576 
L 378.540083 265.705942 
L 379.271449 267.572076 
L 382.928283 275.968282 
L 383.293966 276.700553 
L 384.025333 278.656812 
L 384.391016 279.317711 
L 385.122383 281.104406 
L 385.85375 282.562662 
L 389.510583 290.142931 
L 389.876266 290.615321 
L 390.607633 292.864889 
L 390.973316 293.521657 
L 394.264466 301.541008 
L 394.995833 303.601455 
L 395.361516 304.745196 
L 397.9213 309.887115 
L 399.749716 312.057007 
L 401.21245 313.47901 
L 405.234967 316.350792 
L 405.60065 317.877656 
L 413.28 317.877656 
L 413.28 317.877656 
" clip-path="url(#p401d1552cf)" style="fill: none; stroke: #7b68ee; stroke-width: 1.8; stroke-linecap: square"/>
   </g>
   <g id="line2d_29">
    <path d="M 47.962344 31.879954 
L 48.69371 31.879954 
L 49.059394 34.114311 
L 49.425077 34.114311 
L 49.79076 37.048587 
L 50.156444 38.589578 
L 51.619177 38.589578 
L 51.98486 39.17168 
L 52.350544 40.887756 
L 53.081911 40.988161 
L 53.447594 42.030186 
L 53.813277 43.65633 
L 54.178961 46.02825 
L 55.276011 48.59982 
L 55.641694 49.960269 
L 56.007377 50.051079 
L 56.373061 50.367932 
L 56.738744 51.355207 
L 57.104427 51.711911 
L 57.470111 53.727001 
L 58.201477 53.903307 
L 58.567161 54.427491 
L 59.298527 54.495009 
L 59.664211 56.394043 
L 60.029894 57.070143 
L 60.395577 57.202667 
L 61.126944 59.185084 
L 61.858311 63.047777 
L 62.223994 64.224932 
L 62.589677 65.87824 
L 63.686727 66.846826 
L 65.149461 66.846826 
L 65.515144 66.990518 
L 65.880827 67.378498 
L 66.246511 67.969 
L 66.977877 67.999424 
L 67.709244 68.110273 
L 68.440611 68.176299 
L 68.806294 68.578774 
L 69.171977 68.578774 
L 70.634711 70.309261 
L 72.463128 70.317276 
L 72.828811 70.657376 
L 73.925861 70.657376 
L 74.291544 71.165353 
L 74.657228 72.064164 
L 75.022911 72.370477 
L 76.851328 72.449146 
L 77.217011 72.650694 
L 77.582694 73.118212 
L 77.948378 73.271831 
L 78.679744 73.375794 
L 79.045428 73.703476 
L 79.411111 73.864677 
L 79.776794 74.64342 
L 80.508161 75.234565 
L 80.873844 75.818883 
L 81.239528 76.093841 
L 81.605211 76.866435 
L 82.336578 77.417291 
L 82.702261 77.543453 
L 83.067944 77.979612 
L 84.164994 78.064933 
L 84.530678 78.68527 
L 85.262044 79.317805 
L 85.993411 79.38364 
L 86.359094 79.6945 
L 86.724778 80.558857 
L 87.456144 81.409882 
L 87.821828 81.556974 
L 88.918878 82.584863 
L 89.284561 83.540997 
L 90.747294 84.111306 
L 91.478661 84.585703 
L 91.844345 85.229283 
L 92.210028 85.229283 
L 92.941395 85.782371 
L 93.307078 86.34993 
L 93.672761 86.34993 
L 94.769811 87.986734 
L 95.135495 88.333768 
L 95.501178 88.883329 
L 96.232545 89.372883 
L 97.695278 90.317248 
L 98.426645 90.994394 
L 98.792328 91.18454 
L 99.523695 92.33816 
L 99.889378 92.564994 
L 100.620745 93.449613 
L 102.083478 94.193131 
L 102.449161 94.337528 
L 103.180528 95.075598 
L 103.546211 95.211101 
L 103.911895 95.561919 
L 104.277578 96.142214 
L 104.643261 96.163841 
L 105.008945 96.522952 
L 105.374628 96.710385 
L 106.837361 98.298599 
L 108.300095 99.324059 
L 108.665778 99.864072 
L 109.031461 100.025508 
L 109.397145 100.432916 
L 110.859878 101.202727 
L 111.225561 101.640481 
L 111.591245 101.710924 
L 111.956928 102.158288 
L 112.688295 102.562585 
L 113.785345 103.311071 
L 114.151028 103.882624 
L 114.882395 104.297019 
L 115.613762 104.840475 
L 115.979445 105.009904 
L 116.345128 105.490235 
L 117.076495 105.943396 
L 117.442178 106.054559 
L 117.807862 106.316222 
L 118.539228 107.13687 
L 118.904912 107.236048 
L 119.636278 107.914431 
L 120.001962 108.505754 
L 120.367645 108.851407 
L 120.733328 109.041935 
L 121.099012 109.749266 
L 121.830378 110.190446 
L 122.196062 110.287334 
L 122.927428 111.001146 
L 123.658795 111.423575 
L 124.024478 111.7295 
L 124.390162 112.419168 
L 124.755845 112.564847 
L 125.121528 112.831092 
L 125.852895 113.103175 
L 127.315628 114.326697 
L 127.681312 114.51034 
L 129.144045 115.854889 
L 130.972462 117.001078 
L 131.338145 117.440237 
L 132.435195 117.891955 
L 133.166562 118.769579 
L 133.897929 119.498546 
L 134.263612 120.218907 
L 134.629295 120.62376 
L 135.726345 121.254236 
L 139.017495 123.774047 
L 140.114545 124.845517 
L 141.577279 125.646467 
L 141.942962 125.99773 
L 142.308645 126.174005 
L 143.040012 127.068406 
L 143.405695 127.31617 
L 143.771379 127.924313 
L 144.137062 128.141904 
L 144.868429 129.010368 
L 145.599795 129.515724 
L 145.965479 130.006514 
L 148.159579 131.374867 
L 152.913462 135.914993 
L 153.279146 135.98626 
L 156.204612 138.162212 
L 160.958496 142.876597 
L 161.324179 143.117697 
L 161.689862 143.632505 
L 162.421229 144.100455 
L 162.786912 144.772833 
L 163.518279 145.294995 
L 164.615329 146.609648 
L 164.981012 146.877745 
L 166.078062 148.104186 
L 167.175112 149.057919 
L 169.003529 151.179024 
L 169.734896 151.886641 
L 170.100579 152.499761 
L 170.466263 152.859742 
L 170.831946 153.029191 
L 172.294679 154.852055 
L 172.660363 155.353767 
L 173.391729 155.836536 
L 173.757413 156.168531 
L 174.123096 156.671994 
L 174.488779 156.936331 
L 176.317196 159.039457 
L 177.414246 159.739644 
L 178.145613 160.720646 
L 178.511296 161.145914 
L 179.242663 161.744222 
L 179.974029 162.315234 
L 180.339713 162.71123 
L 180.705396 162.87895 
L 181.802446 163.871471 
L 182.168129 164.486606 
L 183.630863 166.093412 
L 184.727913 168.006827 
L 187.287696 170.624922 
L 188.019063 171.702998 
L 188.384746 172.086612 
L 189.116113 173.103528 
L 191.675896 176.365059 
L 192.04158 177.211929 
L 192.772946 178.262368 
L 193.13863 178.641479 
L 195.33273 181.828334 
L 196.795463 183.463605 
L 197.161146 183.999302 
L 197.892513 184.668874 
L 198.62388 185.575321 
L 198.989563 185.877911 
L 199.72093 187.011884 
L 200.086613 187.173197 
L 201.91503 189.481328 
L 203.01208 190.421837 
L 203.377763 190.849164 
L 204.10913 191.980326 
L 204.474813 192.238659 
L 205.571863 193.976709 
L 206.30323 195.405156 
L 207.034596 196.259714 
L 207.40028 196.693732 
L 207.765963 197.425255 
L 209.228697 199.106029 
L 209.59438 199.802962 
L 210.69143 200.700977 
L 211.78848 201.837466 
L 212.154163 202.508892 
L 212.88553 203.476913 
L 213.251213 203.944284 
L 214.713947 206.44998 
L 216.17668 208.172416 
L 216.908047 209.476603 
L 217.639413 210.635143 
L 218.736463 212.555968 
L 219.833513 214.216766 
L 220.199197 214.551401 
L 220.56488 215.381452 
L 222.393297 217.675237 
L 222.75898 218.376477 
L 223.490347 219.135059 
L 225.318763 221.759524 
L 226.05013 222.871023 
L 227.512863 224.675935 
L 228.24423 225.799721 
L 229.706964 227.89472 
L 230.072647 228.561393 
L 230.804014 229.348758 
L 231.53538 230.415747 
L 232.266747 231.481406 
L 234.82653 234.402799 
L 235.92358 235.682064 
L 238.483364 238.92422 
L 238.849047 239.622902 
L 239.946097 240.906538 
L 243.237247 245.396685 
L 244.334297 246.667122 
L 245.065664 247.691057 
L 247.259764 250.616424 
L 250.550914 255.353325 
L 253.110697 258.240388 
L 253.476381 258.589285 
L 254.207747 259.525788 
L 254.573431 259.823186 
L 256.036164 261.597648 
L 256.401847 262.034477 
L 257.133214 263.144419 
L 257.864581 264.145758 
L 259.692997 265.825332 
L 260.790047 267.174289 
L 261.521414 267.744113 
L 267.738031 274.412715 
L 268.103714 274.710674 
L 269.200764 275.936595 
L 269.566448 276.156031 
L 271.394864 277.905659 
L 271.760548 278.165378 
L 272.857598 279.249283 
L 275.783064 281.867114 
L 277.977164 283.653546 
L 278.708531 284.40923 
L 279.805581 284.935076 
L 280.171264 285.341257 
L 280.536948 285.544425 
L 280.902631 286.053035 
L 282.365364 287.064409 
L 286.387881 289.75952 
L 291.507448 292.942165 
L 293.335865 293.922293 
L 294.798598 294.73534 
L 296.261331 295.388514 
L 299.186798 296.736175 
L 301.015215 297.466366 
L 302.112265 297.969067 
L 305.769098 299.633757 
L 309.425932 301.194635 
L 311.620032 301.997954 
L 313.448448 302.759511 
L 314.545498 303.087422 
L 316.373915 303.753083 
L 317.470965 304.108034 
L 321.127798 305.301353 
L 322.590532 305.861008 
L 332.463982 308.849707 
L 333.926715 309.257947 
L 335.023765 309.509254 
L 336.852182 309.924178 
L 347.822682 312.165721 
L 350.016782 312.510775 
L 360.621599 314.207805 
L 363.547066 314.580347 
L 365.009799 314.775874 
L 370.495049 315.473974 
L 380.368499 316.694368 
L 380.734183 317.877656 
L 413.28 317.877656 
L 413.28 317.877656 
" clip-path="url(#p401d1552cf)" style="fill: none; stroke-dasharray: 6.66,2.88; stroke-dashoffset: 0; stroke: #7b68ee; stroke-width: 1.8"/>
   </g>
   <g id="line2d_30">
    <path d="M 47.962344 31.879954 
L 50.88781 31.879954 
L 51.253494 44.87985 
L 52.716227 44.87985 
L 53.081911 49.75481 
L 54.910327 49.75481 
L 55.276011 50.946468 
L 61.126944 50.946468 
L 61.492627 53.329782 
L 65.149461 53.329782 
L 65.515144 55.158837 
L 66.246511 55.158837 
L 66.612194 55.963971 
L 68.440611 55.963971 
L 69.171977 60.196558 
L 69.537661 66.627338 
L 69.903344 66.627338 
L 70.269027 68.279662 
L 70.634711 68.48766 
L 73.560178 68.48766 
L 73.925861 68.651087 
L 76.485644 68.651087 
L 76.851328 69.355515 
L 77.582694 69.355515 
L 77.948378 71.919632 
L 78.314061 71.919632 
L 78.679744 72.529374 
L 87.456144 72.529374 
L 87.821828 73.143304 
L 88.187511 73.143304 
L 88.553194 73.93844 
L 88.918878 73.93844 
L 89.284561 74.657388 
L 94.769811 74.657388 
L 95.135495 77.162924 
L 95.501178 77.162924 
L 95.866861 77.592702 
L 96.232545 77.82336 
L 96.963911 77.82336 
L 97.329595 78.43772 
L 99.889378 78.462913 
L 100.255061 79.370347 
L 104.643261 79.381303 
L 105.008945 79.546238 
L 105.374628 79.546238 
L 105.740311 79.866146 
L 106.105995 79.866146 
L 106.471678 82.071604 
L 106.837361 82.563091 
L 109.031461 82.563091 
L 109.397145 82.823295 
L 109.762828 82.823295 
L 110.128511 83.077074 
L 110.494195 83.077074 
L 110.859878 83.481986 
L 112.688295 83.507046 
L 115.248078 83.507046 
L 115.613762 83.662268 
L 117.076495 83.662268 
L 117.442178 83.879536 
L 119.636278 83.879536 
L 120.367645 84.897805 
L 121.099012 84.897805 
L 121.464695 86.738848 
L 122.196062 86.738848 
L 122.927428 87.490618 
L 123.293112 87.649506 
L 123.658795 87.649506 
L 124.024478 90.20381 
L 124.390162 91.723755 
L 125.121528 91.836099 
L 125.487212 92.874725 
L 125.852895 92.874725 
L 126.584262 93.500068 
L 127.315628 95.142119 
L 127.681312 96.376019 
L 128.412678 96.96477 
L 130.972462 96.96477 
L 131.338145 97.498474 
L 131.703829 97.498474 
L 132.800879 99.45747 
L 133.166562 99.45747 
L 133.532245 101.895989 
L 134.263612 101.97743 
L 138.286129 101.97743 
L 138.651812 102.153675 
L 140.845912 102.153675 
L 141.211595 102.429672 
L 141.577279 103.10957 
L 141.942962 103.245234 
L 143.405695 103.247218 
L 143.771379 104.159373 
L 144.502745 104.159373 
L 144.868429 104.284436 
L 145.234112 105.553781 
L 145.599795 105.553781 
L 145.965479 107.540722 
L 146.331162 107.777411 
L 146.696845 108.245833 
L 147.062529 108.344617 
L 147.793895 108.898203 
L 148.525262 108.991962 
L 148.890945 109.216067 
L 149.256629 109.30742 
L 149.622312 109.748236 
L 150.353679 110.183165 
L 150.719362 111.115383 
L 151.450729 111.115383 
L 151.816412 111.32376 
L 152.182096 111.401266 
L 152.547779 112.416907 
L 153.644829 112.416907 
L 154.010512 115.389487 
L 154.376196 116.702254 
L 154.741879 116.882367 
L 155.107562 117.723062 
L 155.838929 117.766459 
L 156.570296 118.58514 
L 156.935979 118.754444 
L 157.301662 119.716044 
L 157.667346 119.716044 
L 158.033029 120.104391 
L 159.130079 120.104391 
L 159.495762 120.264084 
L 159.861446 122.432235 
L 160.227129 122.432235 
L 160.958496 123.576957 
L 163.152596 123.779493 
L 163.518279 124.454968 
L 164.615329 124.488734 
L 164.981012 125.290494 
L 165.712379 125.290494 
L 166.078062 125.423438 
L 166.443746 126.959985 
L 166.809429 127.086587 
L 167.175112 128.200424 
L 168.272162 128.200424 
L 168.637846 128.32104 
L 169.003529 129.287622 
L 169.369212 129.404075 
L 169.734896 130.101387 
L 170.100579 130.101387 
L 170.466263 130.685693 
L 170.831946 131.030597 
L 171.197629 132.403899 
L 171.563313 132.613135 
L 171.928996 133.148982 
L 172.294679 133.148982 
L 172.660363 134.590132 
L 173.026046 135.004126 
L 173.391729 135.972196 
L 173.757413 139.834952 
L 174.123096 139.834952 
L 174.488779 141.222359 
L 175.220146 141.854042 
L 175.585829 143.527827 
L 175.951513 143.527827 
L 176.317196 143.861257 
L 176.682879 143.861257 
L 177.048563 144.326187 
L 177.414246 144.326187 
L 177.779929 144.583769 
L 178.145613 146.030881 
L 178.511296 146.279035 
L 178.876979 147.128233 
L 180.339713 147.128233 
L 180.705396 148.607617 
L 181.071079 148.607617 
L 181.436763 149.1895 
L 183.996546 149.197379 
L 184.362229 149.456787 
L 185.093596 149.456787 
L 185.459279 150.90295 
L 185.824963 151.613119 
L 186.190646 152.032835 
L 186.556329 152.85754 
L 187.653379 152.943059 
L 188.019063 153.187192 
L 188.384746 155.649793 
L 188.750429 155.649793 
L 189.116113 156.449038 
L 189.481796 156.669214 
L 189.84748 157.601992 
L 190.213163 157.96212 
L 190.578846 157.993332 
L 190.94453 159.221997 
L 191.310213 159.73775 
L 191.675896 159.73775 
L 192.04158 160.668534 
L 192.407263 160.668534 
L 193.13863 161.44097 
L 193.504313 161.488453 
L 193.869996 162.220712 
L 194.23568 162.242861 
L 194.601363 163.47855 
L 194.967046 163.537517 
L 196.064096 164.681943 
L 197.52683 164.767775 
L 197.892513 165.424336 
L 199.72093 165.424336 
L 200.086613 165.956053 
L 200.452296 168.901361 
L 201.183663 170.002556 
L 201.549346 170.010277 
L 202.646396 171.086324 
L 203.01208 171.666592 
L 203.377763 171.671561 
L 203.743446 174.009511 
L 204.10913 174.663121 
L 204.474813 174.771206 
L 205.20618 175.305031 
L 205.571863 175.516244 
L 205.937546 176.246712 
L 206.30323 176.246712 
L 206.668913 176.757622 
L 207.034596 176.757622 
L 207.765963 178.170865 
L 208.131646 178.655363 
L 208.863013 178.941273 
L 209.960063 179.782195 
L 210.325747 179.782195 
L 210.69143 180.488533 
L 212.154163 180.488533 
L 212.519847 180.849325 
L 212.88553 180.934767 
L 213.251213 181.84492 
L 214.713947 183.502328 
L 215.07963 183.568299 
L 215.445313 184.349549 
L 215.810997 184.747215 
L 216.17668 184.747215 
L 216.542363 184.894289 
L 216.908047 185.481557 
L 217.27373 186.285861 
L 217.639413 186.285861 
L 218.005097 187.829644 
L 218.37078 188.13935 
L 219.102147 188.234862 
L 219.46783 188.700255 
L 219.833513 190.632178 
L 220.199197 191.305517 
L 220.56488 191.64656 
L 220.930563 191.772464 
L 221.66193 191.772464 
L 222.027613 192.031874 
L 222.393297 193.048071 
L 223.124663 193.130415 
L 223.490347 193.472825 
L 223.85603 194.341163 
L 224.221713 194.341163 
L 224.587397 195.213879 
L 225.318763 196.252012 
L 225.684447 196.272334 
L 226.415813 196.737996 
L 227.14718 196.737996 
L 227.512863 197.316194 
L 227.878547 200.375915 
L 228.975597 200.427933 
L 229.706964 200.533588 
L 230.43833 202.467247 
L 230.804014 202.67796 
L 231.169697 203.975708 
L 232.266747 204.145034 
L 232.63243 204.145034 
L 232.998114 204.393311 
L 234.82653 204.393311 
L 235.192214 204.525771 
L 236.289264 204.525771 
L 236.654947 204.746545 
L 237.386314 205.571241 
L 237.751997 207.022639 
L 238.849047 207.322777 
L 239.580414 208.525594 
L 240.677464 208.525594 
L 241.043147 208.837716 
L 241.40883 208.837716 
L 242.140197 209.909602 
L 242.871564 210.157486 
L 243.237247 210.709217 
L 243.968614 211.284329 
L 244.334297 212.097684 
L 244.69998 212.097684 
L 245.065664 213.538921 
L 245.79703 214.426444 
L 246.162714 214.580286 
L 246.528397 215.51037 
L 246.89408 215.916402 
L 247.259764 218.558241 
L 248.722497 218.869523 
L 249.088181 219.277642 
L 249.453864 220.072377 
L 250.185231 220.158934 
L 250.550914 220.82063 
L 250.916597 220.82063 
L 251.647964 221.054353 
L 252.013647 221.093891 
L 252.379331 221.47269 
L 252.745014 221.58586 
L 253.110697 222.28931 
L 253.476381 222.508716 
L 253.842064 222.508758 
L 254.207747 223.796642 
L 255.304797 224.175917 
L 255.670481 224.479883 
L 256.036164 224.479883 
L 256.767531 225.456007 
L 257.133214 225.456007 
L 257.498897 225.583577 
L 258.230264 226.399321 
L 259.327314 226.545531 
L 259.692997 227.425368 
L 260.058681 227.425368 
L 261.521414 230.056921 
L 262.252781 230.476144 
L 262.618464 231.107894 
L 262.984147 232.256333 
L 263.349831 232.571927 
L 264.446881 232.97353 
L 265.909614 234.779485 
L 266.275297 234.886453 
L 266.640981 235.352722 
L 267.372348 235.888137 
L 267.738031 235.888137 
L 268.103714 236.226271 
L 268.835081 236.250956 
L 269.200764 236.38695 
L 269.566448 237.046623 
L 269.932131 237.34493 
L 270.297814 237.34493 
L 270.663498 238.134768 
L 271.029181 238.134768 
L 271.394864 238.549826 
L 271.760548 238.766599 
L 273.223281 240.958566 
L 273.588964 241.98618 
L 273.954648 242.478975 
L 275.051698 242.55348 
L 275.417381 243.399889 
L 275.783064 243.399889 
L 276.148748 244.776794 
L 276.880114 245.220799 
L 277.977164 246.231865 
L 278.342848 246.231865 
L 278.708531 246.740804 
L 279.805581 246.918529 
L 280.536948 247.551518 
L 280.902631 247.672418 
L 281.633998 248.304967 
L 281.999681 248.690271 
L 282.365364 248.736117 
L 282.731048 249.064625 
L 283.096731 249.064625 
L 283.462414 249.45421 
L 284.193781 249.608114 
L 284.559464 250.885405 
L 285.290831 250.970241 
L 285.656514 251.832961 
L 286.022198 251.858114 
L 286.387881 252.596973 
L 287.850615 253.932532 
L 288.216298 253.9333 
L 288.947665 254.651912 
L 289.313348 254.963067 
L 289.679031 255.076792 
L 290.044715 255.342247 
L 290.410398 255.970532 
L 290.776081 255.988449 
L 291.141765 256.409848 
L 291.507448 256.41428 
L 292.238815 256.605084 
L 292.970181 257.204412 
L 293.335865 258.027014 
L 293.701548 258.28053 
L 294.067231 258.391954 
L 294.432915 258.911378 
L 294.798598 259.825878 
L 295.164281 259.951283 
L 295.529965 259.951283 
L 296.992698 260.764406 
L 297.358381 260.785836 
L 297.724065 261.506172 
L 298.455431 262.120385 
L 299.186798 262.159753 
L 299.552481 262.320407 
L 299.918165 263.041395 
L 300.283848 263.041395 
L 300.649531 263.454989 
L 301.015215 263.641927 
L 301.380898 264.140824 
L 301.746581 265.485208 
L 302.112265 265.698825 
L 303.574998 265.799604 
L 303.940681 265.938831 
L 304.306365 265.956021 
L 304.672048 266.166769 
L 305.037731 266.200439 
L 305.403415 266.40842 
L 306.134782 266.487078 
L 306.866148 266.623588 
L 307.231832 267.402085 
L 307.597515 267.783818 
L 307.963198 267.920739 
L 309.060248 269.233528 
L 309.425932 269.233528 
L 309.791615 269.786488 
L 310.157298 269.953252 
L 310.522982 270.850481 
L 311.620032 271.005811 
L 312.351398 272.772925 
L 312.717082 272.953415 
L 313.082765 273.666966 
L 313.448448 273.666966 
L 313.814132 274.428153 
L 314.179815 274.691621 
L 314.911182 275.786449 
L 315.276865 275.91261 
L 315.642548 276.263363 
L 316.739598 276.366551 
L 317.105282 277.102311 
L 317.470965 277.339482 
L 317.836648 277.443863 
L 318.202332 277.724151 
L 318.568015 277.724151 
L 320.396432 278.539809 
L 321.127798 279.085859 
L 322.590532 279.883421 
L 322.956215 280.138485 
L 323.321898 280.161548 
L 323.687582 280.534819 
L 324.053265 280.68371 
L 324.418948 280.68371 
L 324.784632 280.932235 
L 325.150315 280.932235 
L 325.515998 281.480192 
L 325.881682 281.547304 
L 326.247365 282.059878 
L 326.613049 282.059878 
L 326.978732 282.408319 
L 327.344415 282.489428 
L 328.075782 283.024155 
L 328.441465 283.567143 
L 329.904199 283.876937 
L 331.001249 284.93795 
L 331.366932 285.603145 
L 331.732615 285.612621 
L 332.098299 285.778314 
L 332.463982 285.790498 
L 332.829665 286.386183 
L 333.195349 286.649799 
L 334.292399 287.885296 
L 334.658082 287.885296 
L 335.755132 288.715143 
L 336.852182 289.186767 
L 337.217865 289.63636 
L 337.583549 289.900608 
L 337.949232 290.395465 
L 338.314915 290.601888 
L 338.680599 290.974298 
L 339.046282 290.974298 
L 339.411965 291.480818 
L 339.777649 291.543866 
L 340.874699 292.133521 
L 341.240382 292.157473 
L 341.606065 293.216209 
L 342.337432 293.343395 
L 344.531532 294.196438 
L 344.897215 294.567846 
L 345.628582 294.775032 
L 345.994266 294.939181 
L 346.359949 295.500445 
L 347.091316 295.600088 
L 347.822682 295.937446 
L 349.651099 296.409827 
L 350.016782 296.58401 
L 350.382466 296.58401 
L 350.748149 296.918822 
L 351.113832 296.958522 
L 351.479516 297.297691 
L 354.039299 298.241048 
L 354.404982 298.241048 
L 355.502032 298.813088 
L 355.867716 299.127932 
L 356.964766 299.18788 
L 357.696132 300.21254 
L 359.158866 300.604205 
L 359.524549 300.69937 
L 359.890232 300.951392 
L 360.255916 300.96354 
L 360.621599 301.137249 
L 360.987282 301.15485 
L 361.352966 301.809963 
L 361.718649 301.931118 
L 362.450016 302.551848 
L 363.181382 302.634759 
L 363.912749 303.0225 
L 364.278432 303.524374 
L 365.009799 303.57724 
L 366.472533 304.516229 
L 367.203899 304.615213 
L 367.569583 304.669982 
L 368.300949 305.171419 
L 368.666633 305.762951 
L 369.397999 306.16403 
L 369.763683 306.541497 
L 370.129366 306.553553 
L 370.495049 306.727712 
L 371.226416 306.778008 
L 371.957783 307.21344 
L 372.323466 307.391175 
L 372.689149 307.391175 
L 373.420516 307.713585 
L 373.786199 308.294118 
L 374.151883 308.372289 
L 374.517566 308.5767 
L 375.614616 308.710979 
L 376.345983 308.790305 
L 376.711666 308.798674 
L 377.443033 309.327285 
L 378.540083 310.053317 
L 379.271449 310.226707 
L 379.637133 310.561943 
L 381.831233 311.162273 
L 383.659649 311.602672 
L 384.025333 311.621169 
L 384.391016 311.92128 
L 384.7567 311.943302 
L 385.122383 312.116696 
L 385.85375 312.154357 
L 386.585116 312.272379 
L 386.9508 312.606399 
L 387.316483 312.614119 
L 388.413533 313.049015 
L 389.1449 313.270939 
L 389.510583 313.758745 
L 390.24195 313.959179 
L 391.339 314.297808 
L 392.070366 314.371983 
L 392.801733 315.044369 
L 394.63015 315.466501 
L 394.995833 315.735922 
L 397.555616 316.036227 
L 398.286983 316.149885 
L 399.01835 316.242037 
L 400.1154 316.546202 
L 400.846766 316.614159 
L 401.578133 316.726722 
L 403.040866 316.889547 
L 403.772233 316.965823 
L 404.137917 317.877656 
L 413.28 317.877656 
L 413.28 317.877656 
" clip-path="url(#p401d1552cf)" style="fill: none; stroke-dasharray: 11.52,2.88,1.8,2.88; stroke-dashoffset: 0; stroke: #7b68ee; stroke-width: 1.8"/>
   </g>
   <g id="patch_3">
    <path d="M 47.962344 317.877656 
L 47.962344 26.16 
" style="fill: none; stroke: #000000; stroke-width: 0.8; stroke-linejoin: miter; stroke-linecap: square"/>
   </g>
   <g id="patch_4">
    <path d="M 413.28 317.877656 
L 413.28 26.16 
" style="fill: none; stroke: #000000; stroke-width: 0.8; stroke-linejoin: miter; stroke-linecap: square"/>
   </g>
   <g id="patch_5">
    <path d="M 47.962344 317.877656 
L 413.28 317.877656 
" style="fill: none; stroke: #000000; stroke-width: 0.8; stroke-linejoin: miter; stroke-linecap: square"/>
   </g>
   <g id="patch_6">
    <path d="M 47.962344 26.16 
L 413.28 26.16 
" style="fill: none; stroke: #000000; stroke-width: 0.8; stroke-linejoin: miter; stroke-linecap: square"/>
   </g>
   <g id="text_15">
    <!-- Precision–Recall (IoU=0.5) -->
    <g transform="translate(151.957422 20.16) scale(0.12 -0.12)">
     <defs>
      <path id="DejaVuSans-af5" d="M 313 1978 
L 2888 1978 
L 2888 1528 
L 313 1528 
L 313 1978 
z
" transform="scale(0.015625)"/>
      <path id="DejaVuSans-3" transform="scale(0.015625)"/>
      <path id="DejaVuSans-b" d="M 1984 4856 
Q 1566 4138 1362 3434 
Q 1159 2731 1159 2009 
Q 1159 1288 1364 580 
Q 1569 -128 1984 -844 
L 1484 -844 
Q 1016 -109 783 600 
Q 550 1309 550 2009 
Q 550 2706 781 3412 
Q 1013 4119 1484 4856 
L 1984 4856 
z
" transform="scale(0.015625)"/>
      <path id="DejaVuSans-2c" d="M 628 4666 
L 1259 4666 
L 1259 0 
L 628 0 
L 628 4666 
z
" transform="scale(0.015625)"/>
      <path id="DejaVuSans-38" d="M 556 4666 
L 1191 4666 
L 1191 1831 
Q 1191 1081 1462 751 
Q 1734 422 2344 422 
Q 2950 422 3222 751 
Q 3494 1081 3494 1831 
L 3494 4666 
L 4128 4666 
L 4128 1753 
Q 4128 841 3676 375 
Q 3225 -91 2344 -91 
Q 1459 -91 1007 375 
Q 556 841 556 1753 
L 556 4666 
z
" transform="scale(0.015625)"/>
      <path id="DejaVuSans-20" d="M 678 2906 
L 4684 2906 
L 4684 2381 
L 678 2381 
L 678 2906 
z
M 678 1631 
L 4684 1631 
L 4684 1100 
L 678 1100 
L 678 1631 
z
" transform="scale(0.015625)"/>
      <path id="DejaVuSans-18" d="M 691 4666 
L 3169 4666 
L 3169 4134 
L 1269 4134 
L 1269 2991 
Q 1406 3038 1543 3061 
Q 1681 3084 1819 3084 
Q 2600 3084 3056 2656 
Q 3513 2228 3513 1497 
Q 3513 744 3044 326 
Q 2575 -91 1722 -91 
Q 1428 -91 1123 -41 
Q 819 9 494 109 
L 494 744 
Q 775 591 1075 516 
Q 1375 441 1709 441 
Q 2250 441 2565 725 
Q 2881 1009 2881 1497 
Q 2881 1984 2565 2268 
Q 2250 2553 1709 2553 
Q 1456 2553 1204 2497 
Q 953 2441 691 2322 
L 691 4666 
z
" transform="scale(0.015625)"/>
      <path id="DejaVuSans-c" d="M 513 4856 
L 1013 4856 
Q 1481 4119 1714 3412 
Q 1947 2706 1947 2009 
Q 1947 1309 1714 600 
Q 1481 -109 1013 -844 
L 513 -844 
Q 928 -128 1133 580 
Q 1338 1288 1338 2009 
Q 1338 2731 1133 3434 
Q 928 4138 513 4856 
z
" transform="scale(0.015625)"/>
     </defs>
     <use xlink:href="#DejaVuSans-33"/>
     <use xlink:href="#DejaVuSans-55" transform="translate(58.546875 0)"/>
     <use xlink:href="#DejaVuSans-48" transform="translate(97.453125 0)"/>
     <use xlink:href="#DejaVuSans-46" transform="translate(158.984375 0)"/>
     <use xlink:href="#DejaVuSans-4c" transform="translate(213.96875 0)"/>
     <use xlink:href="#DejaVuSans-56" transform="translate(241.75 0)"/>
     <use xlink:href="#DejaVuSans-4c" transform="translate(293.84375 0)"/>
     <use xlink:href="#DejaVuSans-52" transform="translate(321.625 0)"/>
     <use xlink:href="#DejaVuSans-51" transform="translate(382.8125 0)"/>
     <use xlink:href="#DejaVuSans-af5" transform="translate(446.1875 0)"/>
     <use xlink:href="#DejaVuSans-35" transform="translate(496.1875 0)"/>
     <use xlink:href="#DejaVuSans-48" transform="translate(561.1875 0)"/>
     <use xlink:href="#DejaVuSans-46" transform="translate(622.71875 0)"/>
     <use xlink:href="#DejaVuSans-44" transform="translate(677.703125 0)"/>
     <use xlink:href="#DejaVuSans-4f" transform="translate(738.984375 0)"/>
     <use xlink:href="#DejaVuSans-4f" transform="translate(766.765625 0)"/>
     <use xlink:href="#DejaVuSans-3" transform="translate(794.546875 0)"/>
     <use xlink:href="#DejaVuSans-b" transform="translate(826.328125 0)"/>
     <use xlink:href="#DejaVuSans-2c" transform="translate(865.34375 0)"/>
     <use xlink:href="#DejaVuSans-52" transform="translate(894.84375 0)"/>
     <use xlink:href="#DejaVuSans-38" transform="translate(956.03125 0)"/>
     <use xlink:href="#DejaVuSans-20" transform="translate(1029.21875 0)"/>
     <use xlink:href="#DejaVuSans-13" transform="translate(1113.015625 0)"/>
     <use xlink:href="#DejaVuSans-11" transform="translate(1176.640625 0)"/>
     <use xlink:href="#DejaVuSans-18" transform="translate(1208.421875 0)"/>
     <use xlink:href="#DejaVuSans-c" transform="translate(1272.046875 0)"/>
    </g>
   </g>
   <g id="legend_1">
    <g id="patch_7">
     <path d="M 325.58625 104.56375 
L 407.68 104.56375 
Q 409.28 104.56375 409.28 102.96375 
L 409.28 31.76 
Q 409.28 30.16 407.68 30.16 
L 325.58625 30.16 
Q 323.98625 30.16 323.98625 31.76 
L 323.98625 102.96375 
Q 323.98625 104.56375 325.58625 104.56375 
z
" style="fill: #ffffff; opacity: 0.8; stroke: #cccccc; stroke-linejoin: miter"/>
    </g>
    <g id="line2d_31">
     <path d="M 327.18625 36.63875 
L 335.18625 36.63875 
L 343.18625 36.63875 
" style="fill: none; stroke: #b22222; stroke-width: 1.8; stroke-linecap: square"/>
    </g>
    <g id="text_16">
     <!-- yolo / val -->
     <g transform="translate(349.58625 39.43875) scale(0.08 -0.08)">
      <defs>
       <path id="DejaVuSans-5c" d="M 2059 -325 
Q 1816 -950 1584 -1140 
Q 1353 -1331 966 -1331 
L 506 -1331 
L 506 -850 
L 844 -850 
Q 1081 -850 1212 -737 
Q 1344 -625 1503 -206 
L 1606 56 
L 191 3500 
L 800 3500 
L 1894 763 
L 2988 3500 
L 3597 3500 
L 2059 -325 
z
" transform="scale(0.015625)"/>
       <path id="DejaVuSans-12" d="M 1625 4666 
L 2156 4666 
L 531 -594 
L 0 -594 
L 1625 4666 
z
" transform="scale(0.015625)"/>
       <path id="DejaVuSans-59" d="M 191 3500 
L 800 3500 
L 1894 563 
L 2988 3500 
L 3597 3500 
L 2284 0 
L 1503 0 
L 191 3500 
z
" transform="scale(0.015625)"/>
      </defs>
      <use xlink:href="#DejaVuSans-5c"/>
      <use xlink:href="#DejaVuSans-52" transform="translate(59.1875 0)"/>
      <use xlink:href="#DejaVuSans-4f" transform="translate(120.375 0)"/>
      <use xlink:href="#DejaVuSans-52" transform="translate(148.15625 0)"/>
      <use xlink:href="#DejaVuSans-3" transform="translate(209.34375 0)"/>
      <use xlink:href="#DejaVuSans-12" transform="translate(241.125 0)"/>
      <use xlink:href="#DejaVuSans-3" transform="translate(274.8125 0)"/>
      <use xlink:href="#DejaVuSans-59" transform="translate(306.59375 0)"/>
      <use xlink:href="#DejaVuSans-44" transform="translate(365.78125 0)"/>
      <use xlink:href="#DejaVuSans-4f" transform="translate(427.0625 0)"/>
     </g>
    </g>
    <g id="line2d_32">
     <path d="M 327.18625 48.639375 
L 335.18625 48.639375 
L 343.18625 48.639375 
" style="fill: none; stroke-dasharray: 6.66,2.88; stroke-dashoffset: 0; stroke: #b22222; stroke-width: 1.8"/>
    </g>
    <g id="text_17">
     <!-- yolo / test -->
     <g transform="translate(349.58625 51.439375) scale(0.08 -0.08)">
      <defs>
       <path id="DejaVuSans-57" d="M 1172 4494 
L 1172 3500 
L 2356 3500 
L 2356 3053 
L 1172 3053 
L 1172 1153 
Q 1172 725 1289 603 
Q 1406 481 1766 481 
L 2356 481 
L 2356 0 
L 1766 0 
Q 1100 0 847 248 
Q 594 497 594 1153 
L 594 3053 
L 172 3053 
L 172 3500 
L 594 3500 
L 594 4494 
L 1172 4494 
z
" transform="scale(0.015625)"/>
      </defs>
      <use xlink:href="#DejaVuSans-5c"/>
      <use xlink:href="#DejaVuSans-52" transform="translate(59.1875 0)"/>
      <use xlink:href="#DejaVuSans-4f" transform="translate(120.375 0)"/>
      <use xlink:href="#DejaVuSans-52" transform="translate(148.15625 0)"/>
      <use xlink:href="#DejaVuSans-3" transform="translate(209.34375 0)"/>
      <use xlink:href="#DejaVuSans-12" transform="translate(241.125 0)"/>
      <use xlink:href="#DejaVuSans-3" transform="translate(274.8125 0)"/>
      <use xlink:href="#DejaVuSans-57" transform="translate(306.59375 0)"/>
      <use xlink:href="#DejaVuSans-48" transform="translate(345.796875 0)"/>
      <use xlink:href="#DejaVuSans-56" transform="translate(407.328125 0)"/>
      <use xlink:href="#DejaVuSans-57" transform="translate(459.421875 0)"/>
     </g>
    </g>
    <g id="line2d_33">
     <path d="M 327.18625 60.64 
L 335.18625 60.64 
L 343.18625 60.64 
" style="fill: none; stroke-dasharray: 11.52,2.88,1.8,2.88; stroke-dashoffset: 0; stroke: #b22222; stroke-width: 1.8"/>
    </g>
    <g id="text_18">
     <!-- yolo / hawaii -->
     <g transform="translate(349.58625 63.44) scale(0.08 -0.08)">
      <defs>
       <path id="DejaVuSans-4b" d="M 3513 2113 
L 3513 0 
L 2938 0 
L 2938 2094 
Q 2938 2591 2744 2837 
Q 2550 3084 2163 3084 
Q 1697 3084 1428 2787 
Q 1159 2491 1159 1978 
L 1159 0 
L 581 0 
L 581 4863 
L 1159 4863 
L 1159 2956 
Q 1366 3272 1645 3428 
Q 1925 3584 2291 3584 
Q 2894 3584 3203 3211 
Q 3513 2838 3513 2113 
z
" transform="scale(0.015625)"/>
       <path id="DejaVuSans-5a" d="M 269 3500 
L 844 3500 
L 1563 769 
L 2278 3500 
L 2956 3500 
L 3675 769 
L 4391 3500 
L 4966 3500 
L 4050 0 
L 3372 0 
L 2619 2869 
L 1863 0 
L 1184 0 
L 269 3500 
z
" transform="scale(0.015625)"/>
      </defs>
      <use xlink:href="#DejaVuSans-5c"/>
      <use xlink:href="#DejaVuSans-52" transform="translate(59.1875 0)"/>
      <use xlink:href="#DejaVuSans-4f" transform="translate(120.375 0)"/>
      <use xlink:href="#DejaVuSans-52" transform="translate(148.15625 0)"/>
      <use xlink:href="#DejaVuSans-3" transform="translate(209.34375 0)"/>
      <use xlink:href="#DejaVuSans-12" transform="translate(241.125 0)"/>
      <use xlink:href="#DejaVuSans-3" transform="translate(274.8125 0)"/>
      <use xlink:href="#DejaVuSans-4b" transform="translate(306.59375 0)"/>
      <use xlink:href="#DejaVuSans-44" transform="translate(369.96875 0)"/>
      <use xlink:href="#DejaVuSans-5a" transform="translate(431.25 0)"/>
      <use xlink:href="#DejaVuSans-44" transform="translate(513.03125 0)"/>
      <use xlink:href="#DejaVuSans-4c" transform="translate(574.3125 0)"/>
      <use xlink:href="#DejaVuSans-4c" transform="translate(602.09375 0)"/>
     </g>
    </g>
    <g id="line2d_34">
     <path d="M 327.18625 72.640625 
L 335.18625 72.640625 
L 343.18625 72.640625 
" style="fill: none; stroke: #7b68ee; stroke-width: 1.8; stroke-linecap: square"/>
    </g>
    <g id="text_19">
     <!-- rtdetr / val -->
     <g transform="translate(349.58625 75.440625) scale(0.08 -0.08)">
      <defs>
       <path id="DejaVuSans-47" d="M 2906 2969 
L 2906 4863 
L 3481 4863 
L 3481 0 
L 2906 0 
L 2906 525 
Q 2725 213 2448 61 
Q 2172 -91 1784 -91 
Q 1150 -91 751 415 
Q 353 922 353 1747 
Q 353 2572 751 3078 
Q 1150 3584 1784 3584 
Q 2172 3584 2448 3432 
Q 2725 3281 2906 2969 
z
M 947 1747 
Q 947 1113 1208 752 
Q 1469 391 1925 391 
Q 2381 391 2643 752 
Q 2906 1113 2906 1747 
Q 2906 2381 2643 2742 
Q 2381 3103 1925 3103 
Q 1469 3103 1208 2742 
Q 947 2381 947 1747 
z
" transform="scale(0.015625)"/>
      </defs>
      <use xlink:href="#DejaVuSans-55"/>
      <use xlink:href="#DejaVuSans-57" transform="translate(41.109375 0)"/>
      <use xlink:href="#DejaVuSans-47" transform="translate(80.3125 0)"/>
      <use xlink:href="#DejaVuSans-48" transform="translate(143.796875 0)"/>
      <use xlink:href="#DejaVuSans-57" transform="translate(205.328125 0)"/>
      <use xlink:href="#DejaVuSans-55" transform="translate(244.53125 0)"/>
      <use xlink:href="#DejaVuSans-3" transform="translate(285.640625 0)"/>
      <use xlink:href="#DejaVuSans-12" transform="translate(317.421875 0)"/>
      <use xlink:href="#DejaVuSans-3" transform="translate(351.109375 0)"/>
      <use xlink:href="#DejaVuSans-59" transform="translate(382.890625 0)"/>
      <use xlink:href="#DejaVuSans-44" transform="translate(442.078125 0)"/>
      <use xlink:href="#DejaVuSans-4f" transform="translate(503.359375 0)"/>
     </g>
    </g>
    <g id="line2d_35">
     <path d="M 327.18625 84.64125 
L 335.18625 84.64125 
L 343.18625 84.64125 
" style="fill: none; stroke-dasharray: 6.66,2.88; stroke-dashoffset: 0; stroke: #7b68ee; stroke-width: 1.8"/>
    </g>
    <g id="text_20">
     <!-- rtdetr / test -->
     <g transform="translate(349.58625 87.44125) scale(0.08 -0.08)">
      <use xlink:href="#DejaVuSans-55"/>
      <use xlink:href="#DejaVuSans-57" transform="translate(41.109375 0)"/>
      <use xlink:href="#DejaVuSans-47" transform="translate(80.3125 0)"/>
      <use xlink:href="#DejaVuSans-48" transform="translate(143.796875 0)"/>
      <use xlink:href="#DejaVuSans-57" transform="translate(205.328125 0)"/>
      <use xlink:href="#DejaVuSans-55" transform="translate(244.53125 0)"/>
      <use xlink:href="#DejaVuSans-3" transform="translate(285.640625 0)"/>
      <use xlink:href="#DejaVuSans-12" transform="translate(317.421875 0)"/>
      <use xlink:href="#DejaVuSans-3" transform="translate(351.109375 0)"/>
      <use xlink:href="#DejaVuSans-57" transform="translate(382.890625 0)"/>
      <use xlink:href="#DejaVuSans-48" transform="translate(422.09375 0)"/>
      <use xlink:href="#DejaVuSans-56" transform="translate(483.625 0)"/>
      <use xlink:href="#DejaVuSans-57" transform="translate(535.71875 0)"/>
     </g>
    </g>
    <g id="line2d_36">
     <path d="M 327.18625 96.641875 
L 335.18625 96.641875 
L 343.18625 96.641875 
" style="fill: none; stroke-dasharray: 11.52,2.88,1.8,2.88; stroke-dashoffset: 0; stroke: #7b68ee; stroke-width: 1.8"/>
    </g>
    <g id="text_21">
     <!-- rtdetr / hawaii -->
     <g transform="translate(349.58625 99.441875) scale(0.08 -0.08)">
      <use xlink:href="#DejaVuSans-55"/>
      <use xlink:href="#DejaVuSans-57" transform="translate(41.109375 0)"/>
      <use xlink:href="#DejaVuSans-47" transform="translate(80.3125 0)"/>
      <use xlink:href="#DejaVuSans-48" transform="translate(143.796875 0)"/>
      <use xlink:href="#DejaVuSans-57" transform="translate(205.328125 0)"/>
      <use xlink:href="#DejaVuSans-55" transform="translate(244.53125 0)"/>
      <use xlink:href="#DejaVuSans-3" transform="translate(285.640625 0)"/>
      <use xlink:href="#DejaVuSans-12" transform="translate(317.421875 0)"/>
      <use xlink:href="#DejaVuSans-3" transform="translate(351.109375 0)"/>
      <use xlink:href="#DejaVuSans-4b" transform="translate(382.890625 0)"/>
      <use xlink:href="#DejaVuSans-44" transform="translate(446.265625 0)"/>
      <use xlink:href="#DejaVuSans-5a" transform="translate(507.546875 0)"/>
      <use xlink:href="#DejaVuSans-44" transform="translate(589.328125 0)"/>
      <use xlink:href="#DejaVuSans-4c" transform="translate(650.609375 0)"/>
      <use xlink:href="#DejaVuSans-4c" transform="translate(678.390625 0)"/>
     </g>
    </g>
   </g>
  </g>
 </g>
 <defs>
  <clipPath id="p401d1552cf">
   <rect x="47.962344" y="26.16" width="365.317656" height="291.717656"/>
  </clipPath>
 </defs>
</svg>
